<svg xmlns="http://www.w3.org/2000/svg" viewBox="0 0 1080 1080"><defs><style>.cls-1{fill:#dcf0ff;}.cls-2{fill:#e0a844;}.cls-3{fill:#231f20;}.cls-4{fill:#f7f6f7;}.cls-10,.cls-5{fill:none;stroke-miterlimit:10;}.cls-5{stroke:#f7f6f7;}.cls-6{opacity:0.12;}.cls-7{opacity:0.07;}.cls-8{fill:#fff;}.cls-9{opacity:0.56;}.cls-10{stroke:#231f20;stroke-linecap:round;stroke-width:13px;}.cls-11{fill:#c1872b;}.cls-12{opacity:0.28;}.cls-13{fill:#fc5432;}.cls-14{opacity:0.32;}.cls-15{opacity:0.2;}.cls-16{opacity:0.52;}</style></defs><g id="snow"><polygon class="cls-1" points="820.02 216.66 819.5 219.4 818.42 221.95 817.51 224.46 817.4 227.47 815.19 229.33 814.23 232.21 812.57 234.78 809.67 235.71 806.42 235.37 804.4 238.02 801.66 239.4 798.67 239.29 795.65 239.59 793.05 237.62 790.07 237.42 788.26 234.68 784.87 234.64 782.91 232.41 780.18 230.85 779.97 227.45 777.79 225.3 775.87 222.76 778.27 219.34 777.66 216.66 775.73 213.63 777.46 210.97 778.57 208.33 779.3 205.47 780.36 202.6 783.16 201.15 785.43 199.4 787.76 197.75 790.66 197.31 792.74 194.52 795.73 194.3 798.67 196.23 801.43 195.69 804.05 196.57 806.46 197.86 810.18 196.72 811.64 199.75 813.89 201.44 815.26 203.93 817.53 205.77 818.14 208.59 820.78 210.73 821.98 213.59 820.02 216.66"/><polygon class="cls-1" points="945.18 681.76 944.65 684.78 942.46 687.33 942.29 690.29 940.67 692.71 940.09 695.87 936.79 696.85 935.77 700.09 933.03 701.38 929.8 701.31 927.2 702.25 924.76 704.99 921.71 702.71 918.86 703.36 916.36 701.72 913.57 701.41 911.28 699.83 907.78 699.91 907.17 696.3 903.18 695.98 903.63 692.2 901.48 690.14 900.4 687.48 900.71 684.53 898.39 681.76 899.29 678.81 900.78 676.16 901.78 673.51 901.81 670.27 903.07 667.46 906.36 666.41 907.67 663.47 910.08 661.62 912.86 660.4 916.16 661.07 918.66 658.61 921.71 660.34 924.37 661.54 927.36 660.67 930.38 660.84 932.41 663.23 934.39 665.24 936 667.48 938.08 669.21 941.61 670.27 943.01 672.94 941.38 676.49 942.56 679.02 945.18 681.76"/><polygon class="cls-1" points="192.08 540.21 192.56 543.11 192.28 546.03 190.84 548.61 189.8 551.32 188.78 554.19 185.32 554.97 183.76 557.41 182.15 560.28 178.94 560.45 175.78 559.68 173.33 561.18 170.56 561.24 167.91 560.35 165.29 559.88 161.74 561.52 160.16 558.24 156.55 558.47 154.5 556.28 151.94 554.5 150.82 551.61 150.75 548.42 149.93 545.74 149.16 543.03 149.32 540.21 147.81 537.22 150.06 534.72 150.79 532.02 150.43 528.59 154.6 527.97 155.61 525.25 157.34 522.98 158.77 519.78 161.73 518.88 164.94 519.23 167.93 520.22 170.56 519.23 173.27 519.66 176.01 519.89 178.37 521.37 181.61 521.08 183.77 523 187.1 523.67 188.86 526.17 188.35 529.94 189.18 532.5 190.21 534.95 191.61 537.44 192.08 540.21"/></g><g id="feet_2" data-name="feet 2"><polygon class="cls-2" points="724.66 809.46 725.41 804.94 723.19 803.29 720.45 800.51 721.43 797.38 725.35 796 725.16 792.72 727.63 791.13 728.29 788.04 729.94 785.73 734.35 786.41 735.15 783.23 737.13 781.32 738.63 778.78 742.18 778.9 742.58 774.81 744.58 772.86 748.58 773.77 749.26 769.88 753.91 771.93 756.16 770.39 756.67 766.06 759.35 765.17 762.62 765.52 764.38 762.96 766.9 761.9 769.26 760.45 771.6 758.89 774.9 759.89 777.35 758.67 779.53 756.51 782.34 756.32 785.23 756.63 787.3 753.34 790.05 752.85 793.27 755.49 795.83 754.19 798.41 751.92 801.23 752.26 804.02 752.94 806.78 753.13 809.26 755.4 812.03 755.1 814.35 756.71 817.4 756.11 820.9 755.38 821.33 760.01 824.89 759.85 826.89 761.86 828.24 764.48 829.73 766.89 832.35 768.31 834.1 770.5 834.51 773.67 838.74 774.18 839.04 777.35 839.57 780.26 841.75 782.32 843.52 784.68 842.33 788.04 843.09 790.67 844.49 793.28 842.15 796.02 845.17 799.12 842 801.16 843.31 804.85 839.7 805.84 837.22 807.05 837.16 811.35 834.56 812.61 831.17 812.04 829.36 814.72 825.65 812.76 823.63 815.13 821.42 817.2 819.24 819.62 816.42 819.91 812.93 817.29 810.49 818.9 808.29 821.87 805.58 822.51 802.2 819.05 799.8 821.42 796.98 821.02 794.18 820.66 791.68 823.31 788.86 822.6 786.24 825.06 783.42 824.43 780.64 824.69 777.86 823.74 775.15 821.49 772.38 822.51 769.57 823.37 766.85 822.69 764.02 823.22 761.43 821.65 758.35 823.46 755.56 823.07 753.67 818.66 750.04 821.93 747.46 820.69 745.24 818.44 743.08 816.34 739.23 818.5 737.25 816.01 735.54 813.27 732.28 813.43 730.49 811.06 726.89 811.28 724.66 809.46"/></g><g id="wing_2" data-name="wing 2"><polygon class="cls-3" points="699.5 526.22 700.65 528.55 704.4 526.82 705.97 530.2 709.05 529.88 711.04 532.39 713.57 533.5 716.27 534.13 719.27 533.81 722.42 532.91 724.22 536.4 726.78 537.5 729.87 536.58 732.72 536.48 734.72 539.91 737.98 537.98 740.67 538.46 743.58 537.77 745.9 540.26 748.87 539.08 751.57 539.4 754.23 540.09 756.87 540.94 759.44 542.8 762.39 540.38 764.94 543.11 767.82 540.46 770.47 542.34 773.18 543.9 775.95 540.72 778.7 543.4 781.49 544.64 784.15 542.02 786.93 542.78 789.74 544.09 792.41 542.8 795.03 540.58 797.73 539.74 800.5 539.86 803.28 539.52 806.05 540.86 808.39 544.03 811.4 542.32 814.14 542.96 817.41 543.75 817.02 547.56 818.57 550.55 817.02 553.2 816.64 556.19 814.11 558.03 811.16 559.33 810.14 561.95 808.63 564.27 808.33 567.87 803.82 567.15 802.6 569.89 802.1 573.74 798.08 573.03 797.2 576.65 793.19 575.53 792.5 579.77 789.95 580.98 785.65 578.69 783.92 581.37 782.14 584.16 779.66 585.48 776.96 586.25 774.41 587.46 771.53 587.63 768.46 587.07 766.01 588.56 763.45 589.72 760.18 587.8 757.69 589.26 754.77 588.53 752.18 589.48 749.81 592.19 747.19 593.59 744.41 593.87 741.34 590.78 738.61 590.99 735.9 591.6 733.26 594.4 730.4 590.95 727.68 593.18 724.93 591.96 722.2 591.09 718.88 594.36 716.11 592.52 715.8 588.96 712.67 588.02 713.74 583.54 708.65 583.99 708.47 580.67 705.28 579.42 704.53 576.55 703.68 573.82 702.91 571.09 700.41 569.15 698.92 566.69 698.12 563.95 701.29 560.08 697.38 558.28 696.5 555.59 696.53 552.73 697.76 549.78 696.5 547.13 694.85 544.4 698.73 541.64 694.76 538.72 694.8 535.86 697.3 533.35 696.33 530.33 698.27 527.91 699.5 526.22"/></g><g id="body"><polygon class="cls-3" points="677.45 350.21 676.44 347.17 672.21 347.06 672.22 343.46 670.76 341.06 668.92 338.96 665.11 338.5 665.8 334.28 662.81 333.16 661.56 330.54 658.18 329.86 657.83 326.35 656.39 323.81 653.29 322.97 650.97 321.39 648.34 320.18 647.51 316.82 643.61 317.27 641.9 314.96 640.38 312.31 637.13 312.17 635.45 309.65 633.2 308 630.46 307.19 628.95 304.1 625.85 304.01 623.46 302.53 620.79 301.67 618.23 300.58 615.25 300.52 612.67 299.54 610.08 298.57 608.27 295.24 604.65 297.4 602.25 295.77 599.55 295.14 596.93 294.21 594.52 292.4 591.61 292.6 588.64 293.17 586.29 290.83 583.31 291.59 581.02 288.56 577.92 290.17 575.07 290.45 572.47 289.05 569.56 289.83 566.91 288.6 564.18 288.02 561.33 288.48 558.52 288.73 555.86 287.23 553 288.18 550.38 285.55 547.62 284.89 544.76 286.08 542 285.1 539.18 285.95 536.43 284.4 533.61 285.73 530.8 286.7 528.01 287.32 525.24 287.63 522.44 284.66 519.65 284.97 516.88 286.6 514.08 286.2 511.31 287.19 508.5 286.44 505.76 287.27 503.01 287.47 500.17 286.47 497.36 286.28 494.53 285.93 491.83 286.85 489.26 288.72 486.52 289.04 483.4 286.98 480.7 287.76 478.09 288.99 475.13 288.36 472.6 289.9 469.9 290.61 467.06 290.65 464.33 291.24 461.46 291.3 459.18 293.52 456.16 293.12 453.97 295.51 450.84 294.82 448.49 296.6 446.56 299.49 443.21 298.37 441.01 300.4 437.65 299.43 435.95 302.64 432.48 301.57 431.23 305.63 427.78 304.73 425.3 305.98 422.43 306.44 419.94 307.71 417.26 308.61 415.35 310.95 413.87 314.01 410 312.82 408.48 315.74 406.38 317.61 402.86 317.2 401.59 320.39 398.98 321.46 395.81 321.71 393.42 323.17 392.11 326.15 389.4 327.14 388.55 330.65 385.3 330.95 384.21 334.05 381.26 334.78 378.47 335.75 376.73 338 375.05 340.31 371.5 340.47 370.25 343.25 368.77 345.74 366.79 347.67 363.67 348.44 361.27 349.99 359.47 352.13 359.23 355.77 356.8 357.28 355.46 359.81 352.83 361.17 351.99 364.12 350.28 366.29 346.91 367.07 344.6 368.78 343.66 371.6 341.53 373.46 339.33 375.29 337.69 377.55 338.17 381.35 334.76 382.32 335.06 385.92 331.83 387.06 330.66 389.62 329.45 392.15 329.15 395.24 325.86 396.46 326.17 399.89 324.43 402.06 323.33 404.62 321.64 406.84 320.23 409.22 318.1 411.23 317.42 414 316.59 416.68 313.58 418.29 314.04 421.58 312.83 424.07 310.28 425.97 309.22 428.55 308.26 431.16 309.08 434.49 307.2 436.72 304.29 438.59 303.53 441.28 302.37 443.83 302.62 446.86 301.51 449.43 301.56 452.35 302.26 455.44 300.97 457.94 300.04 460.55 298.84 463.11 298.67 465.93 298.49 468.74 295.99 470.99 295.63 473.77 295.91 476.69 293.39 478.97 293.21 481.79 292.37 484.46 292.52 487.34 291.98 490.07 290.09 492.55 291.44 495.64 289.25 498.07 291.4 501.27 289.76 503.81 288.03 506.36 288.45 509.25 290.09 512.3 286.6 514.61 287.56 517.56 286.17 520.19 287.15 523.11 287.57 525.96 286.9 528.68 285.61 531.34 286.11 534.19 284.86 536.87 284.9 539.67 284.04 542.4 284.76 545.24 285.18 548.05 284.37 550.79 283.02 553.52 284.65 556.38 283.16 559.11 283.77 561.92 284.83 564.72 284.4 567.49 284.77 570.27 284.39 573.05 285.67 575.81 283.05 578.64 285.54 581.36 283.15 584.22 285.5 586.91 286.1 589.66 284.85 592.5 283.78 595.36 286.16 597.98 287.08 600.69 283.87 603.75 285.76 606.38 286.56 609.09 285.07 612.05 287.56 614.57 287.41 617.38 286.05 620.37 289.53 622.7 286.97 625.88 287.56 628.61 290.43 630.97 290.8 633.71 288.74 636.9 289.86 639.53 292.55 641.84 290.48 645.1 292.86 647.44 294.36 649.95 293.15 653.07 294.77 655.54 293.22 658.79 294.92 661.24 294.57 664.21 297.98 666.17 297.36 669.23 298.14 671.89 297.76 674.91 301.01 676.84 302.08 679.4 301.81 682.4 302.65 685.05 303.2 687.8 302.94 690.84 304.94 693.08 306.74 695.38 305.69 698.75 308.03 700.84 307.95 703.86 308.76 706.54 310.27 708.95 313.51 710.59 312.3 714.14 315.52 715.76 317.04 718.12 318.24 720.61 316.91 724.31 319.27 726.26 319.21 729.39 320.58 731.83 323.46 733.48 323.41 736.64 326.59 738.1 326.66 741.22 328.07 743.62 330.36 745.52 331.96 747.8 332.5 750.69 333.69 753.21 334.07 756.24 336.41 758.07 337.1 760.92 339.12 762.91 341.09 764.93 341.25 768.18 345.08 768.88 344.8 772.48 347.22 774.14 348.04 777 350.4 778.69 353.19 780 353.39 783.4 355.66 785.12 358.67 786.19 358.63 789.89 360.88 791.61 363.19 793.25 365.07 795.28 366.03 798.19 368.19 799.97 370.31 801.78 372.05 803.97 375.34 804.54 378.08 805.65 378.05 809.76 381.09 810.53 383.95 811.46 386.19 813.07 388.33 814.79 388.69 818.7 392.55 818.32 393.62 821.41 395.88 823.01 398.44 824.21 400.66 825.85 402.3 828.3 405.17 829.02 407.51 830.49 408.46 834.01 411.42 834.58 414.59 834.77 416.2 837.38 419.41 837.46 420.68 840.68 424.13 840.29 425.92 842.69 428.27 844.14 429.9 846.9 432.33 848.25 435.98 847.29 437.51 850.32 439.78 851.99 443.13 851.47 445.18 853.58 448.08 853.91 450.88 854.43 452.89 856.68 455.76 857 458.11 858.53 460.39 860.24 462.77 861.73 465.57 862.19 467.59 864.65 470.2 865.6 473.42 864.88 475.75 866.59 478.83 866.14 481.69 866.3 484.1 867.77 486.74 868.57 488.78 871.35 491.87 870.68 494.52 871.46 497.16 872.26 499.56 874 502.33 874.38 505.26 874.04 508.21 873.52 510.52 875.79 513.27 876.16 515.85 877.32 518.93 875.96 521.04 879.72 524.19 877.83 526.53 880.62 529.79 877.68 532.04 881.36 535.13 879.23 537.96 878.86 540.45 881.19 543.07 882.81 545.89 882.44 548.73 881.8 551.63 880.19 554.31 881.23 557.02 882.09 559.72 883.62 562.48 884.22 565.34 880.85 568.04 884.39 570.82 884.23 573.6 883.9 576.37 883.36 579.09 881.74 581.82 881.14 584.65 882.56 587.33 881.22 590.2 882.6 592.77 880.23 595.75 882.43 598.29 880.09 601.13 880.57 603.76 879.21 606.63 879.92 609.23 878.42 612.31 880.46 615.01 879.67 617.78 879.4 620.11 876.56 623.37 879.07 625.95 877.72 628.54 876.48 631.25 875.87 634.16 876.19 636.74 875 639.38 874.13 641.92 872.87 645.12 874.13 647.18 871.12 650.2 871.66 653.2 871.99 655.42 869.75 657.68 867.72 660.78 868.32 662.95 866.11 665.42 864.84 667.98 863.81 671.15 864.39 673.85 863.66 676.68 863.22 678.93 861.41 680.92 859.09 683.22 857.49 686.22 857.38 688.12 855 691.68 855.89 693.57 853.52 696.86 853.75 699.52 852.78 700.18 848.43 704.14 849.62 705.15 846 708.25 845.7 711.32 845.27 712.01 841.4 714.45 840.07 716.67 838.43 719.88 838.07 722.13 836.41 723.6 833.82 724.92 831.11 726.72 829.01 729.02 827.45 732.18 826.77 733.08 823.74 736.01 822.75 736.79 819.67 738.52 817.52 742.62 817.5 742.02 813.29 745.48 812.61 748.05 811.12 749.23 808.49 750.56 806 750.59 802.58 753.44 801.24 753.85 798.16 757.18 797.09 759.67 795.4 758.74 791.51 760.06 789.09 761.32 786.64 762.87 784.36 766 782.95 765.69 780.28 765.26 777.87 763.52 775.72 762.02 773.38 759 772.09 759 768.74 758.32 765.88 754.77 764.89 754.23 761.94 752.02 760.06 752.57 756.45 749.94 754.83 747.28 753.2 748.14 749.46 746.88 747 743.03 746.03 743.41 742.62 740.29 741.2 738.67 738.92 737.39 736.45 736.11 733.99 737.63 730.05 734.4 728.61 732.46 726.49 733.93 722.65 730.17 721.43 731.35 717.77 727.97 716.33 728.68 712.93 726.8 710.75 725.9 708.13 723.87 706.01 724.46 702.72 722.87 700.4 720.63 698.36 719.19 695.96 718.86 693.09 716.69 690.99 717.83 687.54 714.41 685.93 713 683.49 712.6 680.68 711.23 678.23 710.71 675.46 710.72 672.5 708.39 670.4 707.62 667.73 707.76 664.74 706.41 662.28 704.5 660 704.62 657.03 702.93 654.66 704.13 651.37 704.36 648.4 702.19 646.18 700.78 643.72 700.95 640.78 699.35 638.37 697.35 636.06 698.48 632.86 697.27 630.32 695.47 627.94 697.21 624.61 696.38 621.98 693.84 619.77 693.86 616.91 694.74 613.85 692.83 611.47 690.92 609.08 692.23 605.93 691.07 603.36 688.82 601.02 690.16 597.89 687.68 595.6 688.13 592.67 688.49 589.77 687.14 587.22 687.05 584.41 687.1 581.59 686.61 578.86 686.5 576.07 683.33 573.83 685.24 570.67 684.87 567.93 682.19 565.58 681.31 562.91 682.95 559.84 682.76 557.06 680.2 554.65 682.06 551.57 679.32 549.17 681.32 546.09 678.29 543.71 677.74 540.98 678.68 538.06 680.42 535.05 676.58 532.73 679.12 529.64 679.03 526.87 676.4 524.37 675.66 521.66 675.44 518.89 675.72 516.08 676.09 513.26 676.38 510.45 676.34 507.67 676.19 504.91 673.69 502.33 676.45 499.34 675.19 496.66 673.62 494 674.05 491.19 674.88 488.36 673.06 485.7 675.13 482.8 673.09 480.14 672.11 477.42 673.63 474.57 671.6 471.89 672.11 469.1 673.23 466.28 674.39 463.47 673.59 460.74 672.15 458.01 671.51 455.26 671.3 452.49 671.53 449.72 671.65 446.95 673.25 444.16 673.96 441.39 673.49 438.63 674.27 435.87 673.16 433.11 673.07 430.34 671.46 427.56 673.06 424.81 673.59 422.05 672 419.26 671.55 416.48 671.33 413.71 674.54 411.02 673.84 408.24 671.27 405.39 674.27 402.73 674.32 399.97 671.58 397.08 672.79 394.37 672.42 391.58 672 388.78 672.35 386.02 672.53 383.25 676.02 380.7 675.78 377.92 674.32 375.05 673.13 372.18 674.92 369.55 676.39 366.9 673.95 363.91 676.04 361.33 675.93 358.55 675.23 355.7 675.76 352.97 677.45 350.21"/><polygon class="cls-4" points="605.94 366.52 604.33 363.88 604.37 360.38 599.29 360.75 598.26 358.04 598.61 354.03 594.5 354 594.25 350.34 592.61 347.96 588.2 348.66 587.62 345.08 586.62 341.77 584.36 339.99 581.47 339.13 578.07 339.19 576.69 336.02 573.37 336.18 569.9 336.91 568.79 332.72 566.02 332 563.23 331.46 561.12 328.82 558.05 329.18 554.64 331.37 552.11 330.18 550.05 325.6 546.67 329.58 544.06 327.97 541.4 325.01 538.51 326.23 535.64 324.99 532.76 324.96 529.98 326.15 527.13 326.32 524.2 326.1 521.54 327.49 519.06 329.4 517.01 332.28 513.4 329.82 510.25 329.46 508.67 332.99 506.37 334.55 503.46 334.89 501.45 336.96 498.46 337.35 497.68 341.23 494.65 341.6 492.56 343.38 488.8 342.96 489.06 347.75 486.91 349.4 482.05 347.97 482.7 352.85 478.09 351.93 476.19 353.98 476.65 358.35 472.76 358.41 472.07 361.55 467.83 361.44 467.44 364.81 465.44 366.75 465.27 370.19 464.07 372.74 461.02 373.84 460.89 377.2 458.59 378.89 456.06 380.46 455.76 383.62 450.61 383.42 451.57 387.42 448.81 388.91 446.1 390.47 445.41 393.33 445.39 396.56 442.38 397.99 444.5 402.42 442.1 404.21 440.61 406.53 438.04 408.27 436.58 410.63 438.05 414.49 434.22 415.64 433.82 418.53 430.68 420.09 430.66 423.14 428.01 424.98 428.69 428.32 428.73 431.34 425.61 433.02 427.21 436.66 422.54 437.76 423 440.92 423.04 443.89 421.23 446.16 418.75 448.21 417.52 450.72 416.72 453.39 418.73 456.97 414.97 458.67 414.86 461.54 414.32 464.27 412.76 466.71 413.43 469.78 413.78 472.74 414.72 475.83 414.17 478.52 412.7 480.98 410.9 483.39 410.53 486.14 407.23 488.26 407.3 491.11 406.28 493.75 406.32 496.58 409.08 499.88 405.88 502.14 405 504.81 404.5 507.54 404.5 510.34 405.68 513.29 403.81 515.85 406.48 518.93 404.8 521.52 402.93 524.13 405.07 527.08 406.14 529.91 404.64 532.57 402.52 535.21 402.5 537.98 404.8 540.83 403.03 543.54 401.33 546.28 401.17 549.05 403.54 551.82 401.14 554.62 403.79 557.34 405.45 560.03 402.02 562.93 403.15 565.65 403.66 568.39 402.28 571.26 405.34 573.79 402.85 576.79 406.2 579.23 405.44 582.08 407.37 584.62 407.82 587.33 404.15 590.63 405.28 593.27 407.79 595.66 408.11 598.4 406.88 601.44 406.35 604.38 410.92 606.31 411.49 609.01 411.25 611.88 412.66 614.4 413.01 617.15 412.57 620.09 413.35 622.75 411.75 626.02 412.36 628.75 412.31 631.65 415.24 633.72 418.19 635.74 417.69 638.78 415.37 642.4 419.52 644 417.7 647.52 420.07 649.66 422.07 651.9 422.45 654.71 421.4 658.05 422.97 660.44 422.96 663.43 427.26 664.72 427.96 667.43 426.22 671.16 429.81 672.66 429.36 675.89 433.36 677.14 433.71 680.01 431.49 684.13 433.59 686.22 437.89 687.2 436.26 691.13 437.42 693.66 441.74 694.53 438.99 699.16 440.56 701.49 441.69 704.07 446.96 704.25 446.01 708.02 445.94 711.32 448.62 712.95 451.84 714.22 451.61 717.66 453.5 719.75 456.84 720.86 458.34 723.18 457.65 727.03 461.03 728.05 462.15 730.66 462.59 733.78 463.51 736.59 466.94 737.46 467.16 740.83 472 740.52 473.7 742.69 473.19 746.71 477.09 747.04 478.92 749.1 480.95 750.99 480.51 755.11 483.24 756.37 483.44 760.01 488.54 758.96 487.89 763.47 491.98 763.32 494.12 765.06 493.72 769.48 496.46 770.64 497.12 774.04 499.29 775.82 501.96 777.02 505.7 776.94 506.31 780.53 508.88 781.79 510.55 784.16 514.69 783.4 514.39 788.33 518.13 788 519.02 791.49 523.14 790.55 526.23 790.95 527.99 793.25 530.68 794.19 530.34 799.75 534.14 799 536.92 799.77 539.34 801.11 539.89 805.62 544.28 803.61 544.77 808.38 548.57 807.27 551.35 807.94 552.68 811.39 555.6 811.78 558.67 811.83 560.01 815.46 562.91 815.86 564.83 818.38 567.97 818.19 570.35 819.72 573.85 818.5 576.75 818.68 578.23 822.56 581.46 821.82 583.27 825.03 586.04 825.57 588.64 826.62 591.78 825.93 593.73 829.1 596.61 829.21 599.72 828.43 602.07 830.45 604.73 831.33 607.92 829.93 610.29 832.06 613.46 830.5 615.61 833.91 618.35 834.5 621.49 832.7 624.1 833.99 627.09 832.72 629.98 831.93 632.45 834.38 635.2 834.74 638.03 834.19 640.59 836.83 643.42 836.41 646.12 838.16 649 836.19 651.8 835.05 654.55 836.1 657.36 838.43 660.06 834.69 662.83 834.94 665.51 833.58 668.24 833.43 671.2 835.58 674.22 837.45 676.93 836.5 679.7 836.02 681.97 832.63 684.94 833.51 687.99 834.51 690.19 831.6 693.14 831.99 695.14 828.74 697.8 828.12 700.59 827.88 703.8 828.79 705.93 826.52 708.35 825.13 711.44 825.45 714.6 825.75 715.51 821.03 717.97 819.89 721.04 819.89 724.54 820.56 727.52 820.11 729.7 818.26 730.49 814.27 734.53 815.35 736.43 813.16 738.52 811.28 739.61 808.13 742.37 807.15 745.33 806.35 746.77 803.76 748.79 801.84 750 799.11 752.63 797.82 755.13 796.37 755.29 792.76 757.08 790.69 759.03 788.75 760.68 786.55 764.77 786.16 766.3 783.8 767.64 781.31 769.79 779.36 768.63 775.35 770.8 773.44 772.35 771.13 773.24 768.46 776.8 767.14 774.65 763.02 778.16 761.58 779.24 759 780.21 756.38 778.88 752.92 779.27 750.15 784 748.8 781.51 745.13 784.47 743.09 786.31 740.68 783.85 737.23 786.88 735.05 784.3 731.73 784.9 729.05 784.63 726.25 785.47 723.61 787.57 721.08 788.41 718.37 788.4 715.58 787.39 712.76 788.86 710.04 787.04 707.26 787.01 704.51 786.87 701.77 790.2 698.82 785.76 696.36 787.56 693.43 788.87 690.48 788.19 687.74 788.81 684.81 788.24 682.05 784.73 679.88 785.89 676.8 785.77 673.96 784.04 671.52 781.41 669.36 780.21 666.85 781.93 663.44 781.89 660.53 779.17 658.51 779.59 655.42 776.9 653.46 778.52 649.84 777.53 647.22 774.57 645.45 774.23 642.56 771.75 640.65 770.36 638.25 768.14 636.28 768.09 633.21 766.78 630.77 766.31 627.86 764.51 625.69 761.31 624.36 761.12 621.26 761.31 617.88 756.97 617.35 757.55 613.68 756.78 610.85 755.07 608.64 754.4 605.71 750.95 604.75 750.15 601.89 747.15 600.67 745.18 598.69 745.91 594.6 741.82 594.31 739.03 593.03 737.63 590.61 736.69 587.78 735.8 584.88 734.16 582.62 731.94 580.87 730.01 578.88 728.75 576.25 724.38 576.61 723.34 573.77 723.51 569.67 720.6 568.67 719.77 565.5 715.22 566.3 712.55 565.16 712.57 560.99 707.99 560.36 709.51 556.75 713.13 554.78 710.59 551.37 713.96 549.26 712.22 546.08 714.54 543.71 712.37 540.51 715.39 538.22 716.93 535.65 715.14 532.58 716.94 530.03 717.96 527.36 718.48 524.62 717.6 521.73 715.41 518.74 715.99 516.02 717.08 513.35 718.5 510.67 718.05 507.86 720.55 505.21 719.41 502.37 715.85 499.49 718.65 496.79 717.05 494.01 718.61 491.25 720.27 488.45 719.98 485.67 720.5 482.87 718.67 480.15 718.79 477.36 717.51 474.66 718.94 471.78 718.67 469.01 715.78 466.49 717.66 463.52 714.55 461.08 716.94 458 718.41 454.99 717.46 452.3 713.29 450.14 716.6 446.77 715.21 444.19 712.39 441.89 715.52 438.45 711.55 436.4 713.17 433.23 709.52 431.18 711.13 427.98 709.83 425.43 709.01 422.77 711.1 419.38 709.57 416.89 708.22 414.36 705.85 412.13 707.92 408.64 704.33 406.81 705.53 403.53 702.42 401.6 701.5 398.99 702.06 395.87 703.03 392.55 699.2 391 698.58 388.27 696.13 386.27 694.57 383.95 694.26 381.09 694.29 378.03 693.43 375.37 693.09 372.42 692.7 369.45 689.99 367.73 686.99 366.25 686.67 363.22 685.37 360.75 683.48 358.67 679.98 357.81 678.47 355.56 679.11 351.48 676.93 349.66 674.41 348.24 674.18 344.38 671.62 342.95 667.53 343.71 666 341.11 663.47 339.99 661.84 336.88 658.9 336.49 656.24 335.35 653.29 335.63 650.25 337.83 647.66 337.09 645 336.93 641.99 334.27 639.71 337.63 636.15 334.64 633.98 337.32 631.29 338.12 629.35 340.51 626.26 340.6 624.98 343.75 622.78 345.28 618.38 344.23 617.09 347.07 614.37 348.38 613.23 351.17 611.12 353.11 609.44 355.41 609.01 358.46 607.33 360.73 604.4 362.66 605.94 366.52"/><polygon class="cls-5" points="605.94 366.52 604.33 363.88 604.37 360.38 599.29 360.75 598.26 358.04 598.61 354.03 594.5 354 594.25 350.34 592.61 347.96 588.2 348.66 587.62 345.08 586.62 341.77 584.36 339.99 581.47 339.13 578.07 339.19 576.69 336.02 573.37 336.18 569.9 336.91 568.79 332.72 566.02 332 563.23 331.46 561.12 328.82 558.05 329.18 554.64 331.37 552.11 330.18 550.05 325.6 546.67 329.58 544.06 327.97 541.4 325.01 538.51 326.23 535.64 324.99 532.76 324.96 529.98 326.15 527.13 326.32 524.2 326.1 521.54 327.49 519.06 329.4 517.01 332.28 513.4 329.82 510.25 329.46 508.67 332.99 506.37 334.55 503.46 334.89 501.45 336.96 498.46 337.35 497.68 341.23 494.65 341.6 492.56 343.38 488.8 342.96 489.06 347.75 486.91 349.4 482.05 347.97 482.7 352.85 478.09 351.93 476.19 353.98 476.65 358.35 472.76 358.41 472.07 361.55 467.83 361.44 467.44 364.81 465.44 366.75 465.27 370.19 464.07 372.74 461.02 373.84 460.89 377.2 458.59 378.89 456.06 380.46 455.76 383.62 450.61 383.42 451.57 387.42 448.81 388.91 446.1 390.47 445.41 393.33 445.39 396.56 442.38 397.99 444.5 402.42 442.1 404.21 440.61 406.53 438.04 408.27 436.58 410.63 438.05 414.49 434.22 415.64 433.82 418.53 430.68 420.09 430.66 423.14 428.01 424.98 428.69 428.32 428.73 431.34 425.61 433.02 427.21 436.66 422.54 437.76 423 440.92 423.04 443.89 421.23 446.16 418.75 448.21 417.52 450.72 416.72 453.39 418.73 456.97 414.97 458.67 414.86 461.54 414.32 464.27 412.76 466.71 413.43 469.78 413.78 472.74 414.72 475.83 414.17 478.52 412.7 480.98 410.9 483.39 410.53 486.14 407.23 488.26 407.3 491.11 406.28 493.75 406.32 496.58 409.08 499.88 405.88 502.14 405 504.81 404.5 507.54 404.5 510.34 405.68 513.29 403.81 515.85 406.48 518.93 404.8 521.52 402.93 524.13 405.07 527.08 406.14 529.91 404.64 532.57 402.52 535.21 402.5 537.98 404.8 540.83 403.03 543.54 401.33 546.28 401.17 549.05 403.54 551.82 401.14 554.62 403.79 557.34 405.45 560.03 402.02 562.93 403.15 565.65 403.66 568.39 402.28 571.26 405.34 573.79 402.85 576.79 406.2 579.23 405.44 582.08 407.37 584.62 407.82 587.33 404.15 590.63 405.28 593.27 407.79 595.66 408.11 598.4 406.88 601.44 406.35 604.38 410.92 606.31 411.49 609.01 411.25 611.88 412.66 614.4 413.01 617.15 412.57 620.09 413.35 622.75 411.75 626.02 412.36 628.75 412.31 631.65 415.24 633.72 418.19 635.74 417.69 638.78 415.37 642.4 419.52 644 417.7 647.52 420.07 649.66 422.07 651.9 422.45 654.71 421.4 658.05 422.97 660.44 422.96 663.43 427.26 664.72 427.96 667.43 426.22 671.16 429.81 672.66 429.36 675.89 433.36 677.14 433.71 680.01 431.49 684.13 433.59 686.22 437.89 687.2 436.26 691.13 437.42 693.66 441.74 694.53 438.99 699.16 440.56 701.49 441.69 704.07 446.96 704.25 446.01 708.02 445.94 711.32 448.62 712.95 451.84 714.22 451.61 717.66 453.5 719.75 456.84 720.86 458.34 723.18 457.65 727.03 461.03 728.05 462.15 730.66 462.59 733.78 463.51 736.59 466.94 737.46 467.16 740.83 472 740.52 473.7 742.69 473.19 746.71 477.09 747.04 478.92 749.1 480.95 750.99 480.51 755.11 483.24 756.37 483.44 760.01 488.54 758.96 487.89 763.47 491.98 763.32 494.12 765.06 493.72 769.48 496.46 770.64 497.12 774.04 499.29 775.82 501.96 777.02 505.7 776.94 506.31 780.53 508.88 781.79 510.55 784.16 514.69 783.4 514.39 788.33 518.13 788 519.02 791.49 523.14 790.55 526.23 790.95 527.99 793.25 530.68 794.19 530.34 799.75 534.14 799 536.92 799.77 539.34 801.11 539.89 805.62 544.28 803.61 544.77 808.38 548.57 807.27 551.35 807.94 552.68 811.39 555.6 811.78 558.67 811.83 560.01 815.46 562.91 815.86 564.83 818.38 567.97 818.19 570.35 819.72 573.85 818.5 576.75 818.68 578.23 822.56 581.46 821.82 583.27 825.03 586.04 825.57 588.64 826.62 591.78 825.93 593.73 829.1 596.61 829.21 599.72 828.43 602.07 830.45 604.73 831.33 607.92 829.93 610.29 832.06 613.46 830.5 615.61 833.91 618.35 834.5 621.49 832.7 624.1 833.99 627.09 832.72 629.98 831.93 632.45 834.38 635.2 834.74 638.03 834.19 640.59 836.83 643.42 836.41 646.12 838.16 649 836.19 651.8 835.05 654.55 836.1 657.36 838.43 660.06 834.69 662.83 834.94 665.51 833.58 668.24 833.43 671.2 835.58 674.22 837.45 676.93 836.5 679.7 836.02 681.97 832.63 684.94 833.51 687.99 834.51 690.19 831.6 693.14 831.99 695.14 828.74 697.8 828.12 700.59 827.88 703.8 828.79 705.93 826.52 708.35 825.13 711.44 825.45 714.6 825.75 715.51 821.03 717.97 819.89 721.04 819.89 724.54 820.56 727.52 820.11 729.7 818.26 730.49 814.27 734.53 815.35 736.43 813.16 738.52 811.28 739.61 808.13 742.37 807.15 745.33 806.35 746.77 803.76 748.79 801.84 750 799.11 752.63 797.82 755.13 796.37 755.29 792.76 757.08 790.69 759.03 788.75 760.68 786.55 764.77 786.16 766.3 783.8 767.64 781.31 769.79 779.36 768.63 775.35 770.8 773.44 772.35 771.13 773.24 768.46 776.8 767.14 774.65 763.02 778.16 761.58 779.24 759 780.21 756.38 778.88 752.92 779.27 750.15 784 748.8 781.51 745.13 784.47 743.09 786.31 740.68 783.85 737.23 786.88 735.05 784.3 731.73 784.9 729.05 784.63 726.25 785.47 723.61 787.57 721.08 788.41 718.37 788.4 715.58 787.39 712.76 788.86 710.04 787.04 707.26 787.01 704.51 786.87 701.77 790.2 698.82 785.76 696.36 787.56 693.43 788.87 690.48 788.19 687.74 788.81 684.81 788.24 682.05 784.73 679.88 785.89 676.8 785.77 673.96 784.04 671.52 781.41 669.36 780.21 666.85 781.93 663.44 781.89 660.53 779.17 658.51 779.59 655.42 776.9 653.46 778.52 649.84 777.53 647.22 774.57 645.45 774.23 642.56 771.75 640.65 770.36 638.25 768.14 636.28 768.09 633.21 766.78 630.77 766.31 627.86 764.51 625.69 761.31 624.36 761.12 621.26 761.31 617.88 756.97 617.35 757.55 613.68 756.78 610.85 755.07 608.64 754.4 605.71 750.95 604.75 750.15 601.89 747.15 600.67 745.18 598.69 745.91 594.6 741.82 594.31 739.03 593.03 737.63 590.61 736.69 587.78 735.8 584.88 734.16 582.62 731.94 580.87 730.01 578.88 728.75 576.25 724.38 576.61 723.34 573.77 723.51 569.67 720.6 568.67 719.77 565.5 715.22 566.3 712.55 565.16 712.57 560.99 707.99 560.36 709.51 556.75 713.13 554.78 710.59 551.37 713.96 549.26 712.22 546.08 714.54 543.71 712.37 540.51 715.39 538.22 716.93 535.65 715.14 532.58 716.94 530.03 717.96 527.36 718.48 524.62 717.6 521.73 715.41 518.74 715.99 516.02 717.08 513.35 718.5 510.67 718.05 507.86 720.55 505.21 719.41 502.37 715.85 499.49 718.65 496.79 717.05 494.01 718.61 491.25 720.27 488.45 719.98 485.67 720.5 482.87 718.67 480.15 718.79 477.36 717.51 474.66 718.94 471.78 718.67 469.01 715.78 466.49 717.66 463.52 714.55 461.08 716.94 458 718.41 454.99 717.46 452.3 713.29 450.14 716.6 446.77 715.21 444.19 712.39 441.89 715.52 438.45 711.55 436.4 713.17 433.23 709.52 431.18 711.13 427.98 709.83 425.43 709.01 422.77 711.1 419.38 709.57 416.89 708.22 414.36 705.85 412.13 707.92 408.64 704.33 406.81 705.53 403.53 702.42 401.6 701.5 398.99 702.06 395.87 703.03 392.55 699.2 391 698.58 388.27 696.13 386.27 694.57 383.95 694.26 381.09 694.29 378.03 693.43 375.37 693.09 372.42 692.7 369.45 689.99 367.73 686.99 366.25 686.67 363.22 685.37 360.75 683.48 358.67 679.98 357.81 678.47 355.56 679.11 351.48 676.93 349.66 674.41 348.24 674.18 344.38 671.62 342.95 667.53 343.71 666 341.11 663.47 339.99 661.84 336.88 658.9 336.49 656.24 335.35 653.29 335.63 650.25 337.83 647.66 337.09 645 336.93 641.99 334.27 639.71 337.63 636.15 334.64 633.98 337.32 631.29 338.12 629.35 340.51 626.26 340.6 624.98 343.75 622.78 345.28 618.38 344.23 617.09 347.07 614.37 348.38 613.23 351.17 611.12 353.11 609.44 355.41 609.01 358.46 607.33 360.73 604.4 362.66 605.94 366.52"/><g class="cls-6"><path class="cls-3" d="M708.11,560.35a14.31,14.31,0,0,0-2.53,5.47c-.36,1.24.35-1.63-.18.4a5.9,5.9,0,0,1-.79,1.28c.65-1.06,1.88-1.43.11-.66a8,8,0,0,0-1.35.72,8.9,8.9,0,0,0-3.91,9.28c-.11-.2.86-2.82.15-1.11-.23.56-.57,1.11-.85,1.66l3.88-2.23c-3.27.39-5.69.38-7.84,3.18a16,16,0,0,0-1.72,2.65c-.88,1.83-1.27.9.45.17a13.06,13.06,0,0,0-1.82,1.25c-4.11,2.78-7.34,4.8-10.29,8.93l2.69-2.06-3,.46a4.36,4.36,0,0,0-3.14,3.14l-1,3.61,3.14-3.15a10.29,10.29,0,0,0-7,3.66l3.18-1.31c-6.12.77-8.63,3-12.86,6.88l4.38-1.16-3.36-.64c-1.75-.33-4.28.18-5.08,2.07l-1.48,3.51,6.15-1.61-4-2.26a4.43,4.43,0,0,0-4.54,0c-2.65,1.93-5.13,4-7.71,6.06l3.18-1.32c-4.06-.45-5.65.32-8.37,3.3l4.38-1.16c-1.82-.71-3.75-1.85-5.77-1.32-1.39.38-2.48,1.52-3.69,2.24-.41.24-2.86,1.12-1.45.75-.71.19-1.49.12-2.19.34-1.9.6-3.1,2-4.52,3.32l4.38-1.16c-3.69-.54-5.71-.44-9,1.45l3.47-.46a13.1,13.1,0,0,0-8.41-.34c-3.68.92-5.13,2.58-7.28,5.61-3.35,4.73,4.45,9.23,7.77,4.54l2-2.89-2.69,2.06,3-.75c.49-.12,1.45-.13,1.79-.44.16-.14-2.5-.76-.57.24,2.92,1.53,5.34.26,7.91-1.23l-3.47.45c1.67.24,3.76.89,5.42.44a6.82,6.82,0,0,0,2.78-1.9c2.1-2,0-.36.1-.31,1.73,1.11,6.75-2.82,8.06-3.73l-3.47.45,3.37,1.32a4.38,4.38,0,0,0,4.38-1.15l2.12-2.33L648,615.88c3.35.37,5.07,0,7.74-2.14,2.29-1.83,2.35-2,4.4-3.49h-4.54l4,2.26c1.91,1.08,5.2.65,6.16-1.62l1.48-3.5-5.08,2.06c3.66.7,5.79,1.09,8.8-1.5,1-.89.46-.44.7-.61.55-.38,1.16-.68,1.71-1.06,1.12-.77,2.17-1.69,3.23-2.54l-3.18,1.32c2.28-.29,4.4-.29,6.26-1.8.8-.66,2.4-1.68,1-1.29-1.92.52,1.39.14,2,0a4.4,4.4,0,0,0,3.14-3.14l1-3.61-3.14,3.14c3.44-.52,4.65-1.4,6.82-4.06.88-1.09-.19.25.34-.36a8.49,8.49,0,0,1,1.33-1.28c-1.05.79,1.34-.59,1.86-.91a27.5,27.5,0,0,0,5.4-3.74c1.49-1.55,2.49-3.91,3.71-5.7l-3.88,2.23c3.2-.38,5.88-.28,7.78-3.24,1.62-2.54,1.62-4.92,1.58-7.83l-1.32,3.18a20.63,20.63,0,0,1,1.34-1.6c.16-.16-.34.22.84-.49a9,9,0,0,0,3.47-3.15,11.26,11.26,0,0,0,1.58-3.6c.1-.39.7-2.23.08-1a15.59,15.59,0,0,1,1.48-2c3.48-4.63-4.33-9.12-7.77-4.54Z"/><path class="cls-3" d="M707.9,565.68c.13.63.27,1.26.41,1.89.37,1.78-.33-.7.16.85s0,1.79.68-.11c-.28.77-.74,1.47-1,2.24a13.85,13.85,0,0,0-.74,4.63c0,.56,0,.48.1-.25l-.18,1.12-.19,1.11c1-1.49,1.25-1.88.62-1.17-1.59.68-2.81,3.56-3,5-.08.63,0,1.28,0,1.91-.15,1.7.21-1-.12.79-.06.32-.83,2.36-.2,1-.31.68-.79,1.3-1.12,2a32,32,0,0,0-1.57,3.66c-.24.69-1.14,3.31-.58,2.19-.61,1.22-1.44,2.2-2,3.48a8.47,8.47,0,0,0-.73,2.14c0-1.2,1.46-2.09-.08-.25a21.73,21.73,0,0,0-2.09,3.37,15.7,15.7,0,0,1-2,2.92c.81-.89-1.34,1.1-1.74,1.53-2.5,2.68-2.94,4.91-3.17,8.45l1.32-3.18c-.38.44-2.46,2.78-.91,1.53,1.34-1.09-1.26.21-2.12.48-5.51,1.72-3.15,10.41,2.39,8.68,5.92-1.86,8.14-4.68,8.54-10.87l-1.32,3.19c2.07-2.43,4.66-4.54,6.32-7.29,1.41-2.33.58-1.54,2.07-3.67a34.21,34.21,0,0,0,2.06-4.37c-.3.58,1-1.28,1.17-1.6a13.42,13.42,0,0,0,.88-2.28c.22-.68.37-1.38.6-2.06.12-.35,1.37-2.85.66-1.51A20.32,20.32,0,0,0,713.74,581l-1.32,3.19c1.49-1.59,2.86-2.82,3.44-4.95a19.9,19.9,0,0,0,.51-3.36c.06-.62,0-3.79-.17-1.73-.09,1.74.48-.57.79-1.39a8,8,0,0,0,.57-3.44,35.8,35.8,0,0,0-1-6c-1.23-5.66-9.91-3.26-8.68,2.39Z"/></g><g class="cls-7"><polygon class="cls-3" points="650.07 790.76 647.27 790.46 644.54 791.87 641.72 790.44 638.95 791.64 636.18 790.2 633.4 790.34 630.65 789.94 627.75 791.84 625.02 790.77 622.28 790.17 619.71 788.22 616.63 790.54 613.79 790.63 611.31 788.38 608.49 788.36 605.61 788.64 602.97 787.61 600.13 787.56 597.63 785.93 595.23 784.08 592.28 784.42 589.76 783.11 587.05 782.53 584.38 781.76 581.15 782.81 578.79 781.03 575.93 780.8 574.02 777.8 570.48 779.43 567.69 778.9 566 775.53 562.97 775.63 560.66 773.93 558.17 772.66 555.56 771.71 553.19 770.2 550 770.47 547.72 768.76 546.03 765.87 542.58 766.6 540.44 764.65 537.82 763.65 535.65 761.82 532.68 761.45 530.51 759.61 528.52 757.48 525.03 757.97 523.53 755.02 520.99 753.85 518.34 752.85 516.62 750.35 514.12 749.11 511.72 747.71 508.29 747.85 506.28 745.84 504.32 743.75 501.25 743.3 498.95 741.72 497.15 739.42 495.85 736.46 493.43 735.06 491.57 732.9 487.77 733.32 485.66 731.48 484.3 728.68 481.62 727.59 480.47 724.56 478.27 722.87 476.24 720.97 473.18 720.3 470.74 718.88 469.48 716.06 466.01 715.82 465.62 712.03 463.42 710.32 460.16 709.8 458.32 707.67 457.4 704.55 454.46 703.63 451.64 702.56 451.38 698.8 448.9 697.38 446.57 695.79 445.32 693.1 442.19 692.3 439.76 690.78 439.96 686.72 437.68 685.08 434.81 683.96 433.15 681.76 434.13 684.35 434.33 687.33 438.21 688.49 436.98 692.21 437.68 694.98 439.41 697.2 442.43 698.71 444.2 700.88 445.27 703.44 446.43 705.95 447.17 708.72 447.62 711.68 449.32 713.89 451.26 715.94 452.86 718.2 454.55 720.4 457.27 721.9 458.85 724.15 460.69 726.22 462.06 728.61 462.07 732.01 464.41 733.72 465.75 736.17 466.53 739.06 470.23 739.66 471.05 742.53 471.38 745.85 473.29 747.87 477.43 747.97 477.89 751.22 478.64 754.26 482.4 754.59 483.31 757.51 486.3 758.48 488.22 760.45 489.82 762.73 492.29 764.15 492.74 767.64 495.4 768.86 496.17 772.09 499.24 772.84 500.57 775.52 502.7 777.29 505.77 777.96 507.58 780.1 508.93 782.82 511.87 783.6 514.02 785.32 517.28 785.61 518.13 789.07 521.54 789.1 523.66 790.86 526.28 791.9 527.84 794.49 529.58 796.84 531.52 798.94 534.5 799.42 536.78 800.98 539.68 801.52 540.89 804.89 543.67 805.63 546.44 806.33 549.56 806.38 550.65 810.18 553.31 811.09 556.15 811.58 558.5 813.06 561.34 813.52 563.85 814.66 566.38 815.76 568.59 817.59 571.03 818.9 573.23 820.85 576.12 821.08 578.81 821.78 581.78 821.71 583.69 824.59 586.77 824.14 589.54 824.54 591.6 827.2 594.56 826.97 597.18 827.83 599.71 829.09 602.8 828.2 604.95 830.95 608.3 828.83 610.97 829.46 613.43 831.09 616.34 830.54 618.71 832.86 621.76 831.39 624.02 834.63 627.17 832.28 629.67 834.24 632.28 835.8 635.14 835.35 637.93 835.37 640.83 833.95 643.42 836.62 646.31 834.67 649.02 835.98 651.82 835.23 654.58 837.19 657.37 837.13 660.08 834.25 662.92 836.24 665.75 836.83 668.58 837.13 671.36 836.8 673.91 834.41 676.94 836.25 679.34 833.36 681.97 832.35 685.25 834.87 687.38 831.4 690.67 833.44 693.22 832.09 696.05 831.84 698.47 830.17 700.77 828.23 704.15 829.6 706.83 828.76 709.13 826.95 710.97 824.11 714.06 824.32 717.17 824.41 718.95 821.67 722.24 822.01 723.84 819.08 725.63 816.66 729.41 817.6 731.47 815.61 733.79 814.08 735.81 812.1 737.92 810.29 739.77 808.15 741.87 806.36 744.26 804.92 745.61 802.28 748.89 801.78 749.99 798.92 753.74 798.74 754.58 795.68 756.7 793.85 759.07 792.21 760.86 790.06 763.09 788.24 762.3 784.16 766.42 783.7 765.52 779.72 768.51 778.37 768.25 774.95 771.3 773.55 772.46 771.01 774.57 768.98 775.01 766.08 776.23 763.58 776.06 760.47 778.99 758.72 778.06 755.36 779.47 752.95 780.49 750.39 780.79 747.59 781.59 744.96 784.92 743.03 783.31 739.74 784.83 737.26 786.52 734.78 786.34 731.61 784.64 734.23 783.25 736.74 779.9 737.3 779.12 740.48 775.64 740.79 773.61 742.63 771.63 744.53 770.21 747.13 767.22 747.82 766 750.74 763.55 752.08 761.47 753.91 758.52 754.52 756.26 756.09 754.26 758.06 752.2 759.95 750.35 762.24 747.58 763.01 745.24 764.48 742.35 764.96 739.57 765.6 737.81 768.19 735.32 769.38 732.69 770.28 730.64 772.43 728.06 773.46 725.55 774.65 722.93 775.56 719.96 775.57 717.39 776.57 714.48 776.6 712.27 778.63 709.53 779.15 707.36 781.41 704.63 781.97 701.81 782.2 698.9 782.03 696.44 783.51 693.77 784.23 691.21 785.43 688.43 785.68 685.53 785.3 683.25 788.04 680.08 786.11 677.4 786.8 674.96 788.94 672.05 788.24 669.39 789.25 666.64 789.55 663.69 788.1 661.13 790.03 658.33 789.88 655.72 791.88 652.88 791.2 650.07 790.76"/></g><polygon class="cls-8" points="751.92 705.61 749.17 708.48 750.32 711.05 749.58 713.55 749.74 716.36 747.34 718.21 748.12 721.64 746.59 723.96 745.29 726.47 740.98 726.39 743.32 732.37 741.42 734.6 738.54 735.69 734.88 735.64 731.59 735.81 730.36 738.81 727.28 739.11 727.67 745.05 724.54 745.33 720 742.81 720.13 749.1 715.54 746.1 714.77 751.07 712.32 752.53 709.74 753.69 706.49 753.13 702.34 749.85 701.3 755.26 697.35 752.1 695.09 754.07 693.66 759.13 689.36 753.93 687.45 757.56 684.16 755.64 682.47 760.76 679.26 759.04 675.95 756.35 674.38 763.45 671.61 763.96 668.58 762.65 665.85 763.4 662.98 762.92 660.06 761.6 657.09 759.03 654.38 759.31 651.76 761.74 649 761.38 646.27 763.33 643.48 764.18 640.72 762.75 637.99 761.74 635.01 765.47 632.63 759.57 629.35 765.18 626.69 763.54 623.98 762.65 621.63 759.69 618.74 760.2 615.74 761.01 612.9 760.85 609.86 761.33 608 757.6 605.81 755.46 602.5 756.56 599.07 757.52 597.91 753.24 594.16 754.48 594.22 748.8 589.36 751.33 586.78 749.94 584.59 748.01 586.09 742.62 583.91 741.14 581.88 739.41 578.34 738.14 579.59 734.73 578 732.34 577.76 729.6 578.36 726.9 575.66 723.49 582.11 722.55 582.74 720.14 580.21 715.76 581.08 712.88 585.39 712.57 586.25 709.72 589.13 708.67 591.07 706.77 591.86 703.51 593.28 700.8 595.02 698.39 598.47 698.38 602.63 699.72 604.89 698.25 607.26 696.95 609.17 694.8 611.71 693.76 613.23 690.61 616.53 691.19 619.48 691.15 621.32 688.44 624.64 689.45 626.67 687.08 629.11 685.74 632 685.77 634.41 684.3 637.18 683.99 640.11 684.34 641.67 679.33 644.94 681.09 647.42 679.51 649.64 676.47 652.7 677.61 655.13 675.26 658.63 679.51 661.1 677.38 663.87 677.25 666.9 679.63 669.31 676.12 672.12 676.51 674.86 676.06 677.48 672.72 680.42 677 683.13 674.03 685.92 672.45 688.62 678.17 691.49 674.44 694.41 672.33 697.08 674.53 699.51 678.33 702.1 679.68 705.44 675.22 708 676.96 710.56 678.35 714 675.4 716.55 676.97 719.05 678.53 722.09 678.16 723.98 681.41 726.84 681.62 728.76 684.23 733.05 681.49 735.17 683.68 737.15 685.95 738.3 689.25 743.08 687.5 741.27 693.9 745.75 693.16 744.69 697.49 751.21 696.42 749.85 700.43 748.38 703.72 751.92 705.61"/></g><g id="eyebrows"><g class="cls-9"><polygon class="cls-3" points="568.93 388.19 569.39 385.38 571.36 383.35 571.73 380.58 573.17 377.41 569.51 375.64 570.46 371.53 566.76 371.24 564.69 368.43 561.53 368.23 558.55 368.67 556.18 371.34 553.55 372.2 550.47 371.9 548.3 374.08 545.14 373.95 543.45 376.9 539.73 376.02 538.56 379.57 534.81 379.07 533.76 382.4 529.95 382.4 530.08 386.41 527.55 387.96 528.11 390.64 526.59 393.89 529 395.94 531.99 396.3 534.87 395.64 537.51 395.79 540.28 397.69 542.95 396.26 545.62 395.6 548.1 394.02 551.45 396.59 554.16 395.91 556.33 393.37 558.95 392.55 561.2 390.77 564.51 391.62 567.14 390.6 568.93 388.19"/></g><g class="cls-9"><polygon class="cls-3" points="639.95 384.34 638.39 382.79 636.03 380.95 635.42 378.27 636.14 375.56 636 372.88 637.84 370.78 639.29 368.96 640.79 366.94 643.31 366.86 645.74 367.59 648.69 366.46 651.54 366.6 653.37 369.3 655.55 370.87 658.05 371.81 660.93 372.19 662.88 374.13 664.26 376.73 667.89 376.54 669.75 378.59 670.3 381.66 671.58 383.85 673.91 385.93 672 388.28 670.48 390.09 668.68 392.72 665.72 392.57 662.93 391.77 660.19 391.85 657.42 391.74 654.69 391.25 651.72 391.56 648.8 391.39 646.5 389.4 644.1 387.87 641.8 386.31 639.95 384.34"/></g></g><g id="face"><polyline class="cls-10" points="526.28 458.35 529.53 458.65 531.57 455.77 534.91 457.24 537.43 455.48 540.27 455.07 543.13 454.97 546.02 454.81 548.61 456.8 551.75 455.62 554.43 456.74 556.38 459.33 560.04 458.54 561.83 461.1 564.8 462.03 566.54 464.43 568.59 466.5 569.83 469.18"/><polyline class="cls-10" points="650.44 462.25 651.19 459.68 652.09 457.12 652.8 454.36 655.1 452.64 657.07 450.83 658.59 448.31 661.1 447.02 663.66 445.82 666.46 445.43 669.25 445.15 672.03 445.35"/><polygon class="cls-11" points="587.88 502.98 588.7 505.38 590.41 507.67 591.21 510.5 593.44 512.44 594.6 515.11 596.25 517.45 599.08 518.73 600.91 520.87 602.81 522.96 605.28 524.38 607.48 526.12 609.53 528.16 611.89 529.76 614.82 530.19 617.45 531.16 620.13 531.94 622.6 533.81 625.62 533.01 628.29 533.88 631.05 533.96 633.84 534.44 636.55 533.62 639.24 533.02 642.08 533.08 644.89 532.75 647.24 531.04 649.68 529.76 652.35 528.93 654.99 527.92 656.83 525.68 659.01 524.01 661.76 522.94 663.33 520.55 665.7 518.94 666.54 516.71 664.04 516.03 661.45 514.8 658.64 514.84 655.82 514.95 653.25 513.61 650.36 514.1 647.88 512.21 645.09 512.13 642.19 512.71 639.55 511.75 636.95 510.6 634.02 511.32 631.42 510.16 628.75 509.43 626.05 508.8 623.13 509.51 620.46 508.68 617.9 507.27 615.18 506.8 612.48 506.17 609.71 505.98 607 505.43 604.28 504.91 601.38 505.47 598.75 504.44 595.9 504.67 593.3 503.45 590.46 503.89 587.88 502.98"/><polygon class="cls-2" points="585.45 498.25 586.62 496.32 588.6 494.81 590.9 493.66 592.6 491.07 595.45 490.98 598.01 490.25 599.99 488.18 602.88 488.17 604.78 486.03 607.7 485.64 610.24 484.41 611.53 481.58 613.9 480.14 616.73 479.39 618.65 477.44 620.88 475.71 623.49 474.69 626.2 473.84 629.09 475.39 631.89 473.8 634.26 475.91 636.8 476.77 639.75 476.45 642.45 477.06 644.8 478.5 646.9 480.47 649.48 481.35 652.3 481.76 654.38 483.67 656.43 485.57 659.54 485.59 661.2 488.13 664.38 488.14 666.16 490.41 668.52 491.79 670.83 493.23 672.54 495.48 675.56 496.04 677.02 498.55 679.12 500.28 681.39 501.89 682.08 504.77 683.22 507.03 684.16 509.36 683.91 512.33 682.22 514.88 679.63 516.38 676.95 517.51 674.2 518.3 671.62 519.74 668.53 518.81 665.86 519.96 663.04 520.23 660.17 519.57 657.37 519.94 654.57 521.58 651.72 521.37 648.93 519.65 646.05 520.77 643.31 519.29 640.45 519.63 637.58 519.85 634.79 519.32 631.89 519.84 629.13 519.36 626.39 518.79 623.73 517.85 620.94 517.51 618.62 515.31 615.92 514.66 613.2 514.12 610.09 514.73 607.43 513.83 605.02 512.27 602.28 511.6 599.99 509.85 597.64 508.32 594.95 507.49 592.69 505.85 590.58 504.07 588.47 502.37 586.69 500.44 585.45 498.25"/><g class="cls-12"><polygon class="cls-13" points="548.35 497.25 546.97 499.96 544.98 502.15 543.3 504.22 542.37 506.89 538.98 507.13 537.58 509.5 534.86 509.97 533.79 513.83 531.28 515.06 527.99 513.6 525.79 515.96 523.04 516.06 520.23 514.89 517.62 517.03 514.83 517.64 512.05 517.42 509.64 514.86 506.86 515.09 504.45 513.71 501.63 513.69 499.95 510.73 496.67 511.52 494.54 509.81 491.95 508.83 490.35 506.51 488.36 504.75 487.06 502.41 484.66 500.83 483.33 498.44 481.46 496.09 484.15 492.98 481.49 490.32 484.28 488.16 482.3 484.5 484.48 482.41 487.48 481.35 487.95 477.91 490.62 476.79 493.03 475.47 496.33 476.18 498.61 474.93 500.9 473.44 503.08 470.8 506.2 473.14 508.75 472.07 511.42 472.87 514.04 472.73 516.96 470.03 519.73 470.38 522 473.07 524.59 473.68 527.51 473.41 529.55 475.6 531.94 476.75 534.32 477.93 536.88 478.9 538.65 480.98 540.64 482.75 541.24 485.63 544.77 486.41 546.26 488.8 546.85 491.57 546.08 494.42 548.35 497.25"/></g><g class="cls-12"><polygon class="cls-13" points="717.06 468.05 717.33 470.79 717.74 473.48 717.53 476.19 718.08 478.9 718.49 481.78 717.06 484.25 715.12 486.25 713.94 488.63 711.97 490.4 709.56 491.51 707.84 494.31 704.87 494.23 702.11 494.48 699.54 496.73 696.64 495.65 693.83 495.62 691.32 493.9 688.31 494.46 685.99 492.75 683.29 491.91 681.32 489.9 679.55 487.82 676.41 486.68 677.08 483.14 675.63 480.85 673.24 478.36 673.73 475.39 675.47 472.8 675.98 470.09 677.34 467.68 678.57 465.18 680.6 463.27 682.52 461.31 685.13 460.21 687.34 458.68 689.62 457.21 692.13 456.13 694.68 455.1 697.41 454.78 699.98 452.86 702.8 453.85 705.69 453.42 707.76 455.82 710.31 456.59 713.3 457.45 713.43 460.82 715.23 462.89 716.14 465.46 717.06 468.05"/></g></g><g id="feet_1" data-name="feet 1"><polygon class="cls-2" points="469.06 824.11 465.7 824.95 465.23 821.39 463.23 819.75 460.41 817.42 462.87 814.56 464.61 812.19 463.09 809.1 462.32 805.93 464.08 803.59 464.13 800.58 467.32 799 470.05 797.33 471.08 794.81 470.39 791.3 472.64 789.44 473.77 786.92 474.21 783.96 476.82 782.35 478.09 779.91 481.57 778.93 480.83 775.14 482.66 773.09 484.74 771.25 485.48 768.3 489.18 767.94 489.57 764.6 491.05 762.2 494.94 762.3 496.77 760.31 497.45 756.96 499.86 755.58 501.8 753.6 503.89 751.8 505.67 749.52 507.93 747.88 510.24 746.29 514.65 748.68 516.48 746.39 519.05 745.58 521.24 743.77 524.25 744.54 526 739.98 529.06 741.31 531.79 740.36 534.46 742.52 537.31 741.57 539.43 743.95 542.92 742.4 545.06 744.65 546.81 747.58 549.89 747.46 553.59 746.44 554.95 749.77 556.35 752.7 560.32 751.82 562.81 753.25 563.15 757.14 566.15 757.98 567.5 760.48 568.44 763.15 571.86 764.29 570.86 767.77 573.45 769.8 573.53 772.62 571.91 775.24 573.31 778.23 572.61 781.01 572.01 783.99 568.98 785.28 566.52 786.76 566.16 790.14 562.69 790.55 560.48 792.15 559.15 794.74 558.72 798.52 555.35 798.76 552.31 799.3 550.39 801.28 548.02 802.67 545.3 803.5 543.78 806.16 541.61 807.86 538.96 808.77 537.14 811.11 535.67 814.15 531.32 811.86 529.89 815.06 527.79 817.07 525.74 819.25 522.16 818.01 519.12 817.84 517.78 821.92 514.9 822.14 511.59 820.97 509.47 823.35 506.61 823.36 503.6 822.6 501.67 826.33 498.35 823.82 496.27 827.86 493.45 827.92 490.56 827 487.89 828.66 485.06 826.37 482.25 829.24 479.58 826.88 476.96 825.75 474.22 825.77 471.14 826.97 469.06 824.11"/></g><g id="wing_1" data-name="wing 1"><polygon class="cls-3" points="317.22 621.43 315.49 623.94 313.64 626.03 315.16 630.38 310.08 630.23 310.09 633.69 309.3 636.66 305.1 636.77 304.67 640.09 304.14 643.43 301.24 644.55 299.97 647.25 295.73 646.89 296.37 651.67 292.14 651.18 290.2 653.17 287.28 654.02 287.03 658.09 284.38 659.26 281.68 660.34 280.98 664.02 275.88 661.84 275.44 665.95 273.7 668.33 269.9 667.75 268.35 670.43 266.39 672.53 264.57 674.88 261.78 675.71 259.36 677.12 256.76 678.23 254.31 679.59 250.92 679.32 248.82 681.25 246.09 682.07 245.74 686.86 243.08 687.73 240.63 688.95 238.83 691.12 236.07 691.91 234.66 694.52 231.18 694.51 228.2 695.32 225.17 696.31 226.86 701.52 222.34 701.51 220.41 703.83 222.7 707.62 218.73 710 220.32 713 221.8 715.66 225.09 716.38 227.11 718.08 230.11 718.04 232.53 718.93 234.79 720.12 236.82 723.76 239.82 722.8 242.8 720.87 245.22 725.22 248.11 723.75 250.92 722.65 253.68 722.2 256.43 721.8 259.27 724.42 261.96 722.34 264.86 724.12 267.74 724.98 270.11 720.53 272.85 720.33 275.93 722.59 278.37 720.1 281.58 722.58 284.37 722.24 287.08 721.49 290.03 721.84 292.44 719.77 294.74 717.5 297.11 715.7 300.57 717.73 303.11 716.48 306.02 716.4 308.53 715.09 311.79 715.79 313.61 712.73 316.41 712.16 317.5 707.83 322.13 711.12 323.14 706.9 326.13 706.61 328.15 704.55 330.73 703.45 333.86 703.15 336.27 701.66 336.91 697.84 340.14 697.48 343.59 697.18 345.95 695.5 344.32 689.84 347.81 689.4 351.65 689.02 352.12 685.74 355.06 684.39 355.58 681.3 353.89 678.07 355.43 675.83 352.72 673.73 353.23 670.69 352.63 667.95 352.53 664.96 350.52 662.79 350.61 659.6 349.8 656.79 346.04 655.71 345.51 652.76 345.32 649.5 344.5 646.58 340.69 645.85 340.07 642.77 338.32 640.53 336.04 638.75 331.63 638.9 329.81 636.84 328.96 633.82 327.33 631.51 324.95 629.96 323.12 627.83 320.21 626.92 320.64 622.11 317.22 621.43"/><g class="cls-14"><path class="cls-4" d="M370.16,669.23c-.62.83-1.24,1.65-1.85,2.49-.44.59-.82,1.26-1.3,1.81,2-2.31.72-1-.37-.54a5.44,5.44,0,0,0-3.14,3.46,11.55,11.55,0,0,0-.64,2.39c.34-2.61,1.22-1.18-.1-.27.42-.29-2.09,1.59-1.36,1.3-1.77.7-3.38.39-4.91,1.77-2.37,2.14-2.32,2.87-4.58,5.28-.94,1-.32.45-.58.66-.53.42-1.15.71-1.67,1.13-.7.56-3,2.63-2.74,3.87.09.44,2.14-1.31.14-.21a10.11,10.11,0,0,0-1.64,1.12,14.35,14.35,0,0,0-1.39,1.42c-.93,1-.34.53-.56.74-1.65,1.53-3.24,1.22-6.26,2.34-2.51.92-4.25,3.47-6.07,5.37l3.18-1.32c-4.72.49-6.33,1.28-8.43,5.54l3.88-2.23c-4.38.51-6.11,1.51-8.73,5.07l3.89-2.23c-1.76.06-3.78-.16-5.37.71A8.24,8.24,0,0,0,317.3,711c-.72,1.35,2.19-.38-.15-.12-3.32.37-5.84,2.59-8,4.86l4.38-1.15-3.22-.5c-5.67-.89-8.11,7.78-2.39,8.67,1.71.27,3.89,1,5.61.51a6.32,6.32,0,0,0,2.73-1.94l1.14-1.2c-.54.39-.58.46-.11.21,1.9-1.3,1.12-.15,3.53-1,1.8-.68,2.88-1.94,4.21-3.28l-3.18,1.32c4.51-.14,6.17-1.22,8.82-4.82l-3.89,2.23c4.69-.55,6.28-1.34,8.38-5.57l-3.89,2.23c2.43-.25,4.52-.21,6.46-1.86a22.41,22.41,0,0,0,1.78-1.86c.55-.58,2.62-2.23,1-1.44-1.8.87,1.27,0,1.89-.15a21.78,21.78,0,0,0,2.61-.91,15.41,15.41,0,0,0,4.89-3.28c.85-.85,1.24-1.43,1.08-1.3a25.64,25.64,0,0,0,2.74-1.89c.43-.46,1.83-2.4,1.7-3.08s-1.26.73-.79.61a5.48,5.48,0,0,0,1.55-1,39.09,39.09,0,0,0,7.4-8.06l-2.69,2.06c6.13-1.28,9.76-4.55,11.4-10.64l-2.07,2.69c3.7-1.7,5.35-4.26,7.73-7.44,3.48-4.63-4.33-9.12-7.77-4.54Z"/></g></g><g id="splash_2" data-name="splash 2"><polygon class="cls-1" points="799.01 910.16 799.32 907.31 798.88 904.27 802.03 902.82 803.56 900.6 804.03 897.5 806.29 895.75 807.34 892.95 809.13 890.79 810.51 888.2 813.22 886.94 815.25 885.01 817.79 883.65 819.63 881.52 820.73 878.51 823.55 877.5 826.62 876.83 827.23 873.12 830.57 872.84 833.2 871.68 835.36 869.92 838.1 868.96 839.41 865.98 842.14 865.02 843.76 862.42 845.96 860.66 849.54 861.06 850.72 857.69 852.6 855.36 855.2 854.23 858.04 853.53 860.93 852.95 863.48 851.79 865.79 850.19 868.26 848.88 871.06 848.24 872.53 844.77 875.48 844.46 878.92 845.41 881.13 843.46 884.2 843.64 885.89 840.11 888.33 838.51 891.74 839.83 893.82 837.01 896.72 836.85 900 838.33 902.18 835.36 905.35 836.88 907.83 834.72 910.78 835.72 913.42 833.49 916.3 835.33 919.01 836.25 921.92 834.9 924.44 836.46 926.86 837.71 929.19 838.9 931.89 839.56 935.23 840.08 936.91 842.55 937.77 845.39 937.9 848.32 938.96 850.9 937.52 853.76 938.29 856.28 940.04 859.81 936.86 861.43 936.06 864.41 933.24 865.61 930.34 866.42 928.25 868.19 925.73 869.37 924.07 871.95 921.6 873.28 919.67 875.48 916.66 876.04 914.39 877.79 913.64 881.1 910.71 882.34 911.94 885.33 911.86 887.75 914.62 889.65 917.56 889.3 920.22 886.38 923.21 888.99 925.93 888.05 928.52 886.03 931.57 888.48 934.06 885.62 936.99 886.97 939.54 884.39 942.46 885.83 945.2 885.11 947.98 884.81 950.83 886.8 953.57 886.11 956.33 885.64 959.16 884.48 961.77 886.85 964.75 885 967.25 886.98 970.34 885.86 973.09 886.63 975.28 888.73 976.95 891.28 980.44 890.99 982.28 893.17 984.92 894.82 986.66 897.34 986.98 900.38 986.6 903.33 986.64 906.1 985.9 908.81 984.83 911.29 985.23 914.1 985.31 917.22 982.94 919.03 980.96 920.93 979.02 922.9 977.54 925.9 974.88 927.12 971.42 926.07 968.92 927.23 966.41 928.53 963.33 927.19 960.73 928.05 958.27 930.67 955.41 929.96 952.66 930.35 949.85 928.89 947.12 929.43 944.37 929.13 941.6 929.67 938.72 931.43 935.97 930.8 933.21 930.42 930.69 927.99 927.67 929.83 925.31 926.73 922.37 927.74 919.67 927.13 916.77 927.64 914.24 926.11 911.22 927.01 908.5 926.42 906.38 923.24 903.46 923.54 900.89 922.24 898.02 922.41 895.35 921.57 892.62 921.04 889.73 921.45 887.05 920.67 884.53 918.8 881.58 919.71 879 918.11 875.8 921.04 873.36 918.3 870.65 917.56 867.88 917.33 864.81 919.78 862.43 916.1 859.5 917.42 856.82 916.3 853.86 918.18 851.31 915.65 848.62 914.61 845.71 915.99 842.91 916.19 840.08 916.84 837.49 914.47 834.49 917.15 831.79 916.08 829.13 914.53 826.23 916.1 823.57 914.59 820.83 914.09 818.01 914.52 815.47 912.16 812.57 913.23 809.87 912.58 807.09 912.49 804.38 911.94 801.34 912.23 799.01 910.16"/><path class="cls-1" d="M879.47,813.5c5.37-1.46,7.78-3.78,9-9.17l-2.29,3c.38-.28,1.62-.85,1.76-1.27q1.26-.84-1.66.3h1.78a7.53,7.53,0,0,0,4.91-1.66c1.62-1.18,1.2-1.94,2.82-1.88q1.35-.7-1.63.39l1.76.08a7.35,7.35,0,0,0,2.47-.13c1.61-.45,2.87-1.87,4.18-2.85-1.26.94,1.75-1.12,2.36-1.53a37.11,37.11,0,0,0,3.32-2.43c.32-.28,1.88-1.55.65-.63.68-.51,1.42-1,2.12-1.44l-3.85.51,3.34.83a5.2,5.2,0,0,0,5.65-2.3l2-2.72-4.32,2.48c1.73.2,3.37.59,5-.08a10,10,0,0,0,2.42-1.71c.36-.29,2.21-1.35.75-.59.11-.06,2-.93,2-.89q-3.3.74-1.25.46l.83-.09c2,.4-1.17-.5.51,0,.8.26,1.59.62,2.38.92,2.21.86,4.42-.62,5.65-2.29l2.14-2.9c3.82-5.18-4.85-10.17-8.64-5l-2.13,2.89,5.64-2.3c-6.16-2.39-10.87-.75-15.8,3.4l3.54-1.47-3.1-.35c-1.81-.21-3.35,1.14-4.31,2.48l-2,2.72,5.64-2.3c-2.18-.55-4.39-1.42-6.6-.59-1.87.71-3.56,2.34-5.07,3.61s.31-.08-1.27.93c-.67.43-1.34.86-2,1.31-1.63,1.12-3.17,2.34-4.71,3.57l3.53-1.47c-5-.23-7.65,1.39-11.38,4.47l3.53-1.46c-3.69,0-7.75.61-9.88,4.15a7.34,7.34,0,0,0-.7,2.07c-.51,1.8-1.51,3,.41.54-1.07,1.35-2.63.52.28.08a24.67,24.67,0,0,0-2.52.68c-6.2,1.69-3.57,11.34,2.66,9.65Z"/></g><g id="splash_1" data-name="splash 1"><polygon class="cls-1" points="331.49 913.46 330.21 909.37 331.62 906.33 331.83 903.14 329.62 900.99 326.95 899.2 326.97 895.99 325.28 893.71 322.44 892.15 321.02 889.75 321.32 886.26 318.41 884.78 317.29 882.17 316.7 879.2 315.74 876.46 312.78 875.06 312.4 871.92 308.31 871.32 306.75 868.98 307 865.39 303.66 864.3 302.02 862.02 300.23 859.85 300.51 856.2 298.15 854.43 297.96 851.1 293.59 850.79 294.17 846.9 290.67 845.98 288.85 843.83 289.32 840 287.02 838.2 286.63 835.02 284.86 832.86 282.59 831.13 279.36 830.34 278.75 827.14 276.41 825.6 274.7 823.34 271.08 823.6 270.53 819.5 267.15 819.78 265.37 817.03 261.95 818.35 259.18 818.8 256.76 817.79 254.24 818.33 251.04 815.07 248.87 817.82 246.73 819.5 244.61 821.01 240.71 820.79 241.22 824.9 237.29 826.12 238.59 829.52 238.92 832.26 237.25 835.18 238.49 837.87 240.21 840.27 239.25 843.62 241.01 845.98 241.3 849.05 243.62 850.42 243.32 847.77 240.08 847.06 237.69 845.61 237.38 842.02 234.43 841.16 233.63 837.96 231.34 836.39 229.3 834.53 226.39 833.78 225.32 830.62 222.76 829.44 219.81 828.87 218.06 826.51 215.78 824.93 212.6 824.95 210.75 822.6 207.56 822.86 206 819.69 203.46 818.55 200.25 819.21 197.87 817.71 194.89 818.17 192.07 818.37 189.77 816.24 187.08 815.76 184.32 816.07 181.71 814.05 178.92 814.46 176.09 813.34 173.38 815.14 170.69 816.36 167.82 815.97 164.72 814.71 162.56 818.04 159.82 818.49 157.48 820.19 154.94 821.12 151.68 820.59 148.35 820.49 146.13 822.48 143.86 824.35 143.44 827.95 140.91 829.45 138.42 831.38 139.1 834.7 137.77 837.28 139.71 840.02 139.95 842.57 140.24 845.22 139.98 848.31 142.26 850.23 144.05 852.32 144.86 855.17 145.87 858.06 149.95 857.96 151.93 859.82 153.31 862.36 154.44 865.4 156.24 867.69 158.76 868.95 162.3 868.53 163.44 871.99 166.12 872.9 168.66 874.04 171.75 874.08 173.87 875.97 175.92 878.06 178.75 878.55 181.27 879.66 184.14 879.99 186.38 881.74 188.68 883.37 191.9 882.78 194.45 883.78 196.94 884.96 199.53 885.88 201.32 888.99 203.96 889.83 206.64 890.52 209.07 891.95 212.44 890.58 214.83 892.09 217.4 893.08 220.14 893.57 222.19 896.25 225.65 894.33 227.73 897.02 230.38 897.77 233.06 898.46 236.21 897.39 238.98 897.71 240.84 901.4 244.18 899.55 246.41 901.93 248.88 903.46 252.14 901.75 254.38 904.24 257.61 902.52 260.27 903.22 263.06 903.31 265.67 904.25 268.08 906.16 270.69 907.16 273.42 907.54 276.29 907.21 278.8 908.76 281.76 907.86 284.47 908.33 287.19 908.75 289.5 911.79 292.71 909.01 295.21 910.96 297.78 912.56 300.55 912.66 303.21 913.77 305.98 913.98 308.93 911.92 311.58 913.47 314.33 914.02 317.12 913.29 319.87 911.8 322.56 911.39 325.41 913.19 328.29 913.42 331.49 913.46"/><polygon class="cls-1" points="203.57 932.16 200.65 930.13 198.06 929.25 196.83 926.63 195.7 923.5 193.32 922.08 189.78 922.64 188.22 919.86 186.55 917.15 184.15 915.74 180.66 916.54 179.18 913.24 175.63 914.35 172.52 914.65 171.3 910.45 168.38 910.33 165.67 909.69 163.53 907.37 160.11 909.2 158.08 905.97 154.9 908.43 152.3 907.18 149.59 908.69 146.95 908.91 143.79 905.28 141.08 906.42 138.81 909.01 136.17 909.63 132.98 909.02 129.93 909.32 129.57 914.12 127.59 915.64 125.28 916.86 124.58 919.31 123.46 921.35 122.01 923.59 122.22 926.17 121.32 929.57 123.53 931.8 125.74 934.04 129.26 933.23 132.55 932.07 134.79 934.06 136.79 937.78 140.2 935.08 142.49 938.23 145.49 937.15 148.39 936.39 151.09 937.24 153.7 939.53 156.55 939.12 159.3 940.31 162.23 937.04 165 937.46 167.77 940.41 170.56 937.78 173.39 939.36 176.06 936.25 178.87 936.94 181.92 940.35 184.66 939.14 187.05 935.54 190.25 938.21 193.07 937.82 195.02 933.99 199.04 937.38 201.87 935.75 203.57 932.16"/><path class="cls-1" d="M325.53,833.57l1.88,2.07L326,832.11c-.15,1.65-.62,3.62-.17,5.27.52,1.91,2,2.59,3.29,3.9,2.65,2.72,4,3.53,7.85,4.13l-3.67-4.82a21.64,21.64,0,0,0,3.09,9.77c.58,1-.17-.76.52,1.4a10.32,10.32,0,0,0,1.57,3.17,13.52,13.52,0,0,0,3.13,3.05c1.36,1,2.77,2.66.81-.1a13.73,13.73,0,0,1,1.28,1.8c-.76-1.62,0,1.16.06,1.65-.2-1.91,0,1.28,0,1.66.57,4.21,4,6.24,7.41,8.37l-2.3-3a17.49,17.49,0,0,0,1.67,6c.65,1.25,1.65,2.16,2.4,3.34.53.83-.73-.93,0,.38.3.51.52,1.09.77,1.62l-.5-3.85-.88,3.39a5.13,5.13,0,0,0,2.3,5.64l2.88,1.78-1.79-6.84-1.67,3.68c-1.33,2.94-.36,6.37,3,7.35l4.22,1.24-3.67-4.82c.05.6,0,3.56.31,1.82a21.32,21.32,0,0,1-1.18,3.24c-.81,2.24.6,4.39,2.3,5.65l2.6,1.92c5.18,3.82,10.17-4.85,5-8.64l-2.59-1.92,2.3,5.65a16.38,16.38,0,0,0,1.22-7.72,5.18,5.18,0,0,0-3.67-4.82l-4.22-1.24,3,7.34,1.66-3.69c1.14-2.5.71-5.3-1.79-6.84l-2.88-1.77L362,882c.71-2.75,1.34-4.72.24-7.5a14.88,14.88,0,0,0-1.84-3.25,11.11,11.11,0,0,0-1.15-1.45c-1.46-1.32.47,1.89.43.83a18,18,0,0,0-2.08-6.57c-.91-1.19-2.33-1.79-3.53-2.63-.83-.58.91.45-.37-.32a9.55,9.55,0,0,1-1.4-1.3l1.47,3.54c-.18-2.7-.1-6-1.32-8.43s-4.42-4.35-5.58-5.33c.87.73-.77-.86-.73-.94-.86-1-.67-.65.55,1.18l-.2-.68c.05-1.23-1-2.75-1.53-3.79a27.9,27.9,0,0,0-1.72-3.14c-1.16-1.52-.12,2.07.19.91a9.2,9.2,0,0,0-.19-2.49c-.15-2-1.43-4.48-3.67-4.82a9.62,9.62,0,0,0-2.85-.45q-2-.44,1,.91l-.67-.85a13.27,13.27,0,0,0-3-2.87l1.47,3.54c.38-4.3-.06-6.32-3-9.55-4.33-4.77-11.39,2.32-7.07,7.07Z"/></g><g id="Layer_2" data-name="Layer 2"><polygon class="cls-13" points="206.31 267.85 206.19 265.79 208.34 263.87 209.47 261.36 210.77 258.93 211.62 256.19 214.86 255.09 215.29 252.05 216.25 249.36 219.31 248.21 221.04 246.09 222.1 243.44 224.21 241.63 225.2 238.9 228.19 237.83 229.63 235.47 231.83 233.77 233.28 231.4 234.71 229 235.9 226.36 239.34 225.86 239.8 222.48 242.85 221.66 244.62 219.56 246.75 217.83 248.09 215.24 250.46 213.77 252.42 211.85 254.83 210.45 256.84 208.59 258.35 206.12 261.34 205.44 263.61 203.9 264.56 200.68 267.19 199.6 269.06 197.51 270.95 195.43 273.5 194.26 275.7 192.62 277.86 190.9 280.87 190.46 282.4 187.76 284.65 186.17 287.3 185.22 290.6 185.39 292.72 183.6 295.03 182.12 297.32 180.6 299.91 179.57 301.7 177.07 304.27 176.02 306.45 174.22 308.96 173.05 311.8 172.52 314.78 172.28 316.93 170.42 319.08 168.57 322.16 168.55 323.83 165.68 326.83 165.56 328.76 163.16 331.83 163.22 333.95 161.2 336.74 160.66 339.24 159.5 341.31 157.28 344.51 157.78 347.25 157.19 349.35 155.03 351.6 153.16 354.49 152.99 356.86 151.41 359.38 150.22 362.57 151.04 364.88 149.2 367.47 148.21 370.28 147.95 372.94 147.23 375.49 146.03 378.3 145.87 380.88 144.76 383.7 144.75 386.35 143.9 389.13 143.74 391.96 144.08 394.72 144.01 397.19 141.44 399.96 141.25 402.9 143.19 405.61 142.57 408.36 142.68 411.08 141.91 413.83 141.78 416.59 142.69 419.33 142.77 422.1 141.25 424.87 140.84 427.56 142.53 430.31 142.37 433.1 142.05 435.81 142.57 438.51 143.11 441.19 143.8 443.94 143.98 446.75 143.79 449.31 145.14 452.32 143.97 454.88 145.29 457.68 145.34 460.21 146.66 462.97 146.93 465.69 147.4 468.5 147.52 470.84 149.5 473.95 148.51 475.96 151.62 478.72 151.93 481.54 152.09 484.35 152.34 486.69 154.06 489.63 153.96 491.73 156.33 494.51 156.71 497.21 157.33 499.69 158.55 502.6 158.66 504.85 160.47 507.57 161.07 509.64 163.29 512.14 164.42 514.63 165.56 517.75 165.3 520.2 166.57 523.01 167.07 525.19 168.91 528.19 169.06 529.91 171.8 532.94 171.92 535.18 173.6 537.61 174.9 539.75 176.74 542.27 177.87 544.09 180.23 547.08 180.56 549.09 182.56 551.45 183.97 554.7 183.97 556.12 186.88 559.1 187.34 560.71 189.9 562.89 191.59 566.1 191.79 568.5 193.19 570.78 194.76 572.78 196.71 574.91 198.49 577.23 200.01 578.3 203.09 581.01 204.13 582.36 206.82 585.34 207.55 586.6 210.31 589.03 211.7 590.95 213.69 593.65 214.82 595.89 216.47 597.36 218.93 599.56 220.62 602.06 222.03 603.24 224.73 605.78 226.12 606.26 229.45 608.44 231.18 609.89 233.56 612.79 234.68 613.63 237.6 615.31 239.77 618.31 240.87 619.16 243.72 621.35 245.5 623.22 247.54 625.58 249.22 626.51 251.97 628.44 253.98 629.67 256.5 630.76 259.09 633.23 260.76 633.49 263.89 634.83 266.29 636.62 268.42 638.64 270.41 639.21 272.27 637.38 271.57 634.53 271.58 631.54 272.37 629.2 269.73 626.26 270.23 623.51 269.77 620.9 268.48 617.83 269.94 615.37 267.68 612.36 268.92 609.62 268.38 607.01 266.93 604.11 267.57 601.57 265.54 598.62 266.64 595.99 265.13 593.09 265.95 590.47 264.2 587.62 264.64 584.83 264.49 582.06 263.96 579.25 264.14 576.38 265.1 573.72 262.96 570.86 264.09 568.04 264.62 565.27 264.19 562.48 264.36 559.76 262.04 556.95 262.7 554.15 262.8 551.36 263.18 548.57 261.8 545.77 262.22 542.98 262.11 540.19 262.41 537.45 263.88 534.6 262.32 531.79 262.14 529.12 264.42 526.34 264.44 523.59 265.1 520.78 264.87 518 265.08 515.19 264.96 512.46 265.63 509.51 264.37 507 266.77 503.94 264.85 501.35 266.47 498.6 266.94 495.84 267.34 493.14 268.06 490.11 266.88 487.69 269.19 484.9 269.45 481.84 268.39 479.62 271.37 476.66 270.84 474.21 272.58 471.37 272.69 468.71 273.48 465.84 273.5 463.07 273.93 460.59 275.39 458.12 276.82 455.45 277.42 452.31 276.63 450.34 279.32 447.3 279 444.64 279.77 441.83 280.21 439.52 281.82 437.66 284.37 434.61 284.33 432.51 286.31 429.24 285.92 427.32 288.23 425.22 290.13 422.04 290.04 420.04 292.12 417.15 292.62 415.35 295 413.22 296.8 409.97 296.76 407.88 298.63 405.87 300.61 403.43 301.91 401.3 303.68 399.26 305.58 397.25 307.5 394.58 308.47 392.81 310.75 390.08 311.64 387.37 312.58 385.64 314.89 382.71 315.56 381.08 317.99 379.3 320.19 376.24 320.72 374.47 322.94 371.57 323.69 370.57 326.88 368.07 328.14 366.67 330.79 363.23 330.9 360.83 332.33 359.33 334.83 357.06 336.4 355.69 339.02 353.33 340.29 351.66 338.12 351.23 335.31 351.06 332.37 348.74 330.36 348.68 327.36 346.13 325.46 345.6 322.67 344.02 320.35 342.86 317.84 342.23 315.09 340.63 312.79 339.88 310.08 338.32 307.77 338.06 304.83 336.3 302.6 335.83 299.74 334.81 297.15 332.12 295.4 330.46 293.14 331.13 289.67 327.93 288.23 327.01 285.58 326.54 282.66 325.82 279.87 324.24 277.56 321.92 275.72 320.1 273.61 318.21 271.56 317.15 268.92 315.07 267.08 313 265.35 311.05 263.44 308.21 263.3 306.04 261.06 303.29 260.75 300.36 261.9 297.7 261.59 295.14 259.4 292.38 259.4 289.63 259.65 286.9 258.99 284.19 260.99 281.48 261.26 278.76 261.27 276.02 260.89 273.26 260.56 270.48 259.95 267.72 259.75 264.97 259.78 262.31 260.72 259.64 261.57 256.96 262.25 254.17 261.88 251.59 263.4 248.76 262.7 245.91 261.93 243.4 263.89 240.72 264.5 237.83 263.48 235.14 264.03 232.38 264.08 229.64 264.33 227.03 265.46 224.2 265.04 221.62 266.35 218.83 266.23 216.33 268.13 213.44 267.17 210.8 268.05 208.09 268.4 206.31 267.85"/><g class="cls-15"><polygon class="cls-3" points="640.73 273.37 639.5 269.86 635.84 268.85 634.95 266.13 635.27 262.61 632.47 261.11 631.39 258.48 628.1 257.37 627.09 254.7 625.12 252.7 623.71 250.3 621.63 248.39 622.27 244.37 618.53 243.78 617.76 240.83 617.11 237.74 614.51 236.27 612.87 234 610.38 232.48 608.95 230.01 606.06 228.9 604.34 226.7 603.64 223.5 601.14 222.05 599.14 220.11 596.88 218.44 593.96 217.49 593.51 213.88 591.06 212.43 588.02 211.66 587.65 207.85 584.39 207.37 583.34 204.28 579.63 204.41 577.48 202.64 576.32 199.62 574.2 197.79 571.37 196.92 569.43 194.85 566.53 194.13 564.43 192.28 562.47 190.23 560.24 188.56 557.28 187.98 555.69 185.32 552.7 184.85 550.91 182.45 548.78 180.58 545.82 180.11 544.23 177.31 541.33 176.75 539.23 174.78 536.28 174.38 536.58 177.34 535.19 179.97 536.1 182.86 534.31 185.35 532.85 187.84 532.97 190.65 533.37 193.57 533.86 196.58 532.04 198.92 529.67 201.02 530.89 204.36 528.65 206.46 528.68 209.44 527.61 212 526.83 214.69 523.05 215.9 523.74 219.34 522.71 221.92 520.42 223.8 519.75 226.6 518.2 228.9 517.07 231.47 514.08 232.76 514.12 236.19 511.52 237.7 508.41 238.75 508.73 242.56 506.55 244.33 504.57 246.27 502.89 248.48 500.77 250.26 498.22 251.62 497.5 254.82 493.82 254.94 493.59 258.79 491.01 260.06 489.11 262.09 485.89 262.5 483.15 263.45 482.61 267.28 478.78 266.72 478.17 270.62 476.51 270.62 477.53 268.98 480.28 268.53 483.02 268.11 485.75 267.61 488.63 267.9 491.27 266.92 494.17 267.48 496.77 266.17 499.47 265.49 502.51 267.21 505.12 265.88 507.79 264.9 510.71 266.07 513.34 264.69 516 263.46 518.8 263.6 521.55 263.22 524.41 264.27 527.13 263.5 529.86 262.72 532.71 264.22 535.38 261.81 538.17 262.29 540.96 262.82 543.75 263.57 546.5 262.68 549.28 264.49 552.05 261.92 554.82 262.63 557.58 263.26 560.34 263.36 563.07 264.15 565.83 264.2 568.61 263.85 571.33 264.61 574.25 262.21 576.92 263.79 579.63 264.75 582.54 263.11 585.33 263.05 587.94 264.99 590.74 264.83 593.53 264.76 596.12 266.57 599.1 264.97 601.65 266.9 604.55 266.05 607.25 266.77 610.01 267.06 612.9 266.51 615.65 266.92 618.4 267.34 620.75 270.09 623.4 270.99 626.55 269.07 629.32 269.39 631.79 271.26 634.23 273.25 637.11 272.96 640.73 273.37"/></g><g class="cls-15"><polygon class="cls-3" points="290.1 229.73 287.38 233.48 284.26 232.09 281.46 232.29 278.27 231.05 275.88 232.95 273.37 234.32 271.46 237.61 267.83 235.23 264.71 234.65 263.52 239.84 259.46 236.64 256.83 237.6 254.87 240.3 252.07 240.79 249.69 242.31 248.02 245.56 246.01 247.88 243.12 248.11 240.95 250.01 237.27 248.58 234.65 249.53 231.7 249.79 228.58 249.75 228.18 255.18 224.72 254.46 221.38 254.06 220.39 258.12 216.62 256.96 216.06 261.69 212.95 261.77 211.51 264.76 208.47 262.51 210.4 264.44 212.76 266.68 215.3 267.92 217.96 268.46 220.92 267.29 224.08 263.57 226.42 265.18 229.01 263.4 232.38 267.58 235.13 266.94 237.41 262.6 240.65 265.97 243.18 263.44 245.78 261.52 248.97 264.85 251.93 266.26 254.27 261.64 257.07 261.45 259.83 260.7 262.54 259.41 265.77 264.6 268.49 263.64 271.21 262.42 273.98 261.89 276.71 260.02 279.54 260.69 282.36 261.75 285.17 259.74 287.9 262.83 290.83 260.11 293.69 260.01 296.22 262.75 298.61 265.09 301.98 262.29 304.46 263.83 306.56 265.81 310.44 264.99 311.12 264.47 311.83 263.94 308.34 262.64 306.45 260.46 303.86 258.7 307.43 253.28 303.72 252.19 303.63 248.91 298.38 248.8 298.79 245.2 299.27 241.53 293.55 241.81 292.42 239.17 290.56 237.01 289.92 234.04 290.1 229.73"/></g><polygon class="cls-1" points="237.63 304.78 236.18 306.73 233.66 308.05 234.75 312.12 230.66 311.85 230.43 315.35 227.68 316.02 224.87 316.18 223.27 318.58 221.2 320.53 218.69 321.54 216.05 322.12 213.29 319.36 210.89 318.58 208.14 320.98 205.48 321.01 203.68 317.61 200.87 318.3 198.97 316.23 196.76 315.19 194.39 314.47 190.96 315.19 190.05 312.11 186.6 312.11 186.81 308.4 185.47 306.37 182.36 305.35 183.54 301.97 182.05 299.95 181.41 297.6 181.7 295.07 180.02 292.82 178.62 290.35 177.5 287.7 181.36 285.48 180.71 282.58 178.63 280.62 175.66 279.81 173.67 278.05 172.11 275.94 173.84 271.84 171.79 270.16 168.09 269.13 170.06 265.51 167.96 263.6 168.29 260.89 166.32 258.73 164.75 256.3 167.88 253.56 167.07 251.1 166.36 248.49 167.08 246.03 169.04 243.98 167.23 240.68 170.88 239.76 170.47 236.66 173.1 235.59 173.59 232.74 176.46 232.23 177.01 229 179.93 228.84 181.81 227.24 184.58 227.34 186.21 225.05 189.07 225.87 190.79 223.18 193.56 224.45 195.85 223.78 198.25 224.14 200.6 223.13 202.92 224.03 205.66 221.98 208.27 222.03 209.7 225.66 211.89 226.44 213.66 228.03 217.69 226.23 219.89 227.66 221.18 230.06 222.07 232.62 223.59 234.54 224.63 236.77 226.08 238.75 227.14 240.96 229.27 238.89 232.09 240.12 234.59 240.18 237.15 237.79 239.51 240.42 241.73 241.68 244.21 241.77 247.63 240.05 249.33 242.54 251.63 243.71 253.77 245.17 255.98 246.59 256.3 249.8 257.73 251.81 259.14 253.82 259.84 256.26 261.76 258 264.51 259.47 265.11 261.99 265.46 264.55 264.25 267.52 266.96 269.37 267.53 271.83 268.46 274.24 269.96 276.75 267.93 279.3 269.42 282.17 268.58 284.76 267.51 287.25 264.52 288.47 263.34 290.71 261.39 292.29 260.14 294.65 256.51 293.99 255.58 296.89 254.46 299.93 250.57 297.96 248.54 299.32 246.37 300.41 244.38 302.06 242.01 302.74 240.01 304.65 237.63 304.78"/><polygon class="cls-1" points="336.53 332.6 337.83 330.22 337.75 327.12 338.66 324.44 343.24 324.06 343.7 321.15 344.5 318.37 347.3 317.15 348.7 314.81 349.77 312.03 351.32 309.61 353.03 307.24 354.99 305.07 358.43 305.23 360.45 303.21 362.66 301.4 365.01 299.78 368.05 299.89 370.83 299.53 374.3 301.61 375.57 296.06 378.99 298.41 381.68 298.09 383.78 294.53 386.48 293.86 389.71 297.39 391.23 294.43 392.57 292.8 396.2 291.43 395.84 288.2 395.57 284.8 398.17 283.11 400.82 281.61 402.48 279.44 403.64 276.8 405.39 274.63 407.09 272.33 408.25 269.23 411.53 268.85 414.75 268.71 417.33 267.79 420 267.13 422.22 265.49 425.1 265.6 426.85 261.82 429.67 261.31 432.3 259.94 435.21 259.84 438.57 262.62 440.91 259.16 443.93 260.5 446.52 257.48 449.39 256.77 452.32 257.84 455.18 258.66 457.99 259.41 460.77 260.03 463.97 257.52 466.27 261 469.82 263.24 470.43 258.25 473.4 257.55 474.87 255.13 477.12 253.66 480.35 253.72 481.81 251.06 485.28 251.98 486.57 248.67 488.5 246.26 492.14 248.69 493.64 244.13 496.42 243.8 499.37 245.29 502.13 243.7 505.01 246.81 507.72 247.1 510.77 244.68 513.95 243.41 516.64 244.94 519.45 245.82 520.88 249.89 523.92 249.91 526.68 252.33 529.59 250.17 530.41 246.65 533.42 246.13 535.34 243.9 537.53 241.98 541.24 243.43 543.44 241.58 546.42 242.03 548.6 239.57 551.11 237.65 554.16 239.73 556.83 236.52 559.51 240.55 562.14 241.17 565.27 239.06 568.37 238.41 570.16 242.27 573.38 241.52 575.13 244.51 579.33 242.3 580.72 245.69 583.37 246.74 585.83 248.16 589.51 248.06 589.76 252.25 591.57 255.7 594.58 252.4 597.62 253.89 599.72 250.17 602.6 250.96 605.64 253.75 608.07 251.16 610.64 249.1 613.52 253.24 616.13 249.94 618.79 252.84 621.66 248.68 624.01 253.46 627.11 249.91 629.14 254.37 631.68 254.85 635.35 251.15 637.25 254.34 640.09 254.39 643.32 254.25 645.79 255.89 648.92 256.52 650.1 259.92 651.35 262.79 653.89 264.22 657.06 265.35 655.55 269.83 658.79 271.13 662.13 272.81 662 276.03 663.24 278.77 662.59 281.84 664.91 284.69 660.63 287.42 661.52 290.3 660.52 292.92 662.28 296.71 658.83 298.27 657.11 300.4 655.08 302.2 652.77 303.59 652.17 307.23 648.56 306.56 646.78 309.03 643.88 308.9 641.03 308.21 639.12 313.19 636.16 312.03 633.39 313.75 630.7 309.86 628.07 309.21 625.06 312.11 622.99 308.46 620.69 307.28 617.86 307.53 614.76 308.12 612.34 306.9 610.84 303.73 607.41 304.66 604.29 304.79 603.77 300 599.2 302.7 597.85 299.6 595.9 296.12 592.74 297.88 589.9 297.97 587.08 298.06 584.29 298.17 581.72 299.54 579.07 300.54 576.42 301.81 573.6 301.76 571 304.46 567.99 301.19 565.25 304.68 562.41 303.27 559.72 301.48 556.49 303.86 554.47 298.95 551.17 300.65 548.52 299.49 545.36 299.82 542.4 299.37 540.35 296.75 536.98 297.09 534.61 295.28 531.8 294.32 530.1 291.92 529.76 295.32 525.22 294.2 525.24 298.7 522.52 299.71 518.52 298.62 518 303.01 514.53 302.46 512.6 304.72 510.19 306.13 507.62 307.21 505.13 308.62 501.69 306.52 499.36 308.85 496.85 311.12 493.57 307.93 491.03 310.79 488.02 307.18 485.3 307.76 482.51 310.11 479.62 311.5 477 308.43 474.03 310.03 471.36 308.71 468.71 308.49 468.65 311.86 466.14 313.58 462.43 314.15 459.91 315.64 458.88 318.55 458.29 322.07 454.89 322.57 451.75 323.18 451.11 326.97 449.57 329.8 446.53 330.48 443.08 330.25 441.18 332.7 439.32 335.38 436.64 336.37 433.85 336.93 430.32 334.22 428.55 339.15 425.55 338.3 422.93 339.96 419.82 336.11 417.22 338.38 414.46 338.13 411.75 336.11 409.06 335.96 406.19 338.43 403.48 337.78 400.83 336.91 397.96 336.76 398.75 340.14 397.97 342.94 392.95 343.78 394.74 347.8 394.31 350.89 389.39 351.04 388.7 353.94 386.75 355.9 386.64 359.85 383.07 360.08 382.14 363.81 378.56 363.45 376.42 365.76 373.56 366.44 370.75 367.2 367.51 364.67 364.8 364.3 362.14 365.36 359.48 364.66 356.21 368.14 353.84 365.38 350.98 365.14 348.37 364.01 345 364.1 344.74 359.53 342.8 357.82 340.59 356.25 336.1 355.66 338.77 351.27 335.86 349.35 333.29 346.87 333.89 343.8 336.58 340.93 334.67 338.02 337.84 335.61 336.53 332.6"/><g class="cls-16"><path class="cls-3" d="M287.14,228.9l2.52,1.53-2.07-2.69c.41,2,.61,3.64,2,5.17,1.06,1.16,2.88,2.75,3.28,3.37a27.82,27.82,0,0,0,6.93,7.33l-2.23-3.89c0,1.76-.29,4,.63,5.56s2.58,2.07,3.83,3.14c-1.14-1,1,1.06,1.12,1.3-.8-1.14.14.67.26.94.4.84,2.06,4.06,1.62,2s-.7,2.59-.46,3.46a5.93,5.93,0,0,0,1.35,2.2c.22.29,1.7,2,1.33,1.44a21,21,0,0,0,1.64,2.71c1.35,1.65.47,1.07.43-.47,0,.9.06,1.81.09,2.71.19,5.78,9.19,5.8,9,0-.18-5.33-2.79-9.07-6.32-13l1.32,3.18c.48-3.89-.29-5.6-2.23-8.83a21,21,0,0,0-6.82-7l2.23,3.89c0-3.53-.09-5.56-3.1-7.78-.24-.17-1.84-1.58-.85-.62a14.33,14.33,0,0,1-1.47-1.64c.75,1-.88-1.67-1.22-2.16a20.16,20.16,0,0,0-2.05-2.63,6.7,6.7,0,0,0-1.4-1.18c-1.44-.67.05,1.22.25.66,1-2.91-3.17-5.38-5.07-6.53-5-3-9.49,4.76-4.54,7.77Z"/></g><g class="cls-15"><polygon class="cls-8" points="483.87 179.88 481.52 182.9 476.98 183.52 476.87 186.47 473.84 186.88 471.71 188.15 470.19 190.62 467.74 191.64 464.96 191.9 462.93 194.02 460.95 196.69 459.17 200.52 455.24 196.71 452.16 195.46 450.26 199.61 447.64 200.76 444.68 199.84 442.1 201.39 439.15 200.1 436.78 204.3 433.82 202.63 431.05 203.13 428.13 199.7 425.49 205.17 422.66 205.07 419.94 199.2 417.02 204.72 414.48 199.36 411.75 199.41 408.6 203.87 406.21 199.81 403.19 201.74 401.09 196.97 397.97 199.15 395.33 198.29 392.01 200.5 389.05 200.72 386.95 197.7 383.47 199.42 381.14 197.4 379.08 194.94 375.6 195.76 375.92 189.18 371.47 191.37 370.47 188.1 370 184.99 367.58 183.99 364.42 182.69 366.52 179.88 361.54 176.12 364.5 173.76 366.58 171.52 370 171.05 372.34 169.67 372.6 164.58 376.96 166.82 378.97 164.53 382.6 166.3 384.59 163.76 387.85 165.12 389.75 161.78 392.06 159.46 395.41 161.87 397.41 157.48 401.01 162.35 403.41 159.81 405.98 157.99 408.86 158.95 411.77 160.97 414.51 161.26 417.22 160.99 419.87 156.75 422.66 160.94 425.39 159.94 428.13 159.65 430.81 160.88 433.67 159.03 436.55 157.72 439.58 155.69 442.42 155.86 445.05 157.41 447.54 159.51 450.34 159.7 452.22 164.01 455.05 163.78 457.47 165.15 460.26 165.19 464.37 161.83 465.57 166.41 467.77 168.06 470.06 169.38 472.59 170.29 476.05 170.17 476.59 173.56 481.61 173.27 481.25 176.95 483.87 179.88"/></g></g></svg>